<?xml version="1.0" standalone="no"?>
<!DOCTYPE svg PUBLIC "-//W3C//DTD SVG 20010904//EN"
 "http://www.w3.org/TR/2001/REC-SVG-20010904/DTD/svg10.dtd">
<svg version="1.0" xmlns="http://www.w3.org/2000/svg"
 width="1230.000000pt" height="503.000000pt" viewBox="0 0 1230.000000 503.000000"
 preserveAspectRatio="xMidYMid meet">

<g transform="translate(0.000000,503.000000) scale(0.100000,-0.100000)"
fill="#000000" stroke="none">
<path d="M0 2515 l0 -2515 2240 0 c1487 0 2240 3 2240 10 0 6 7 10 15 10 8 0
15 -4 15 -10 0 -6 1325 -10 3895 -10 l3895 0 0 503 c0 524 0 527 -42 527 -12
0 -18 8 -18 24 0 13 -6 29 -14 36 -8 6 -13 17 -10 24 3 7 -10 26 -28 41 -18
15 -32 34 -30 41 3 13 -53 74 -69 74 -5 0 -9 9 -9 21 0 24 -37 58 -62 59 -12
0 -18 8 -18 24 0 14 -11 33 -25 44 -19 15 -25 29 -25 57 0 32 -3 37 -19 32
-13 -3 -18 0 -15 8 5 13 -50 75 -67 75 -5 0 -9 9 -9 21 0 24 -37 58 -62 59
-12 0 -18 8 -18 21 0 12 -11 30 -25 41 -19 15 -25 29 -25 59 0 33 -3 40 -17
38 -20 -3 -93 65 -93 86 0 15 -57 75 -71 75 -5 0 -9 9 -9 21 0 12 -11 30 -25
41 -19 15 -25 29 -25 59 0 33 -3 40 -17 38 -20 -3 -93 65 -93 86 0 15 -57 75
-71 75 -5 0 -9 9 -9 21 0 12 -11 30 -25 41 -19 15 -25 29 -25 59 0 32 -4 39
-19 39 -22 0 -91 65 -91 85 0 20 -59 75 -80 75 -14 0 -20 9 -22 33 -2 22 -10
35 -25 42 -18 8 -23 18 -24 50 0 24 -3 33 -7 23 -6 -15 -9 -15 -29 2 -16 13
-23 29 -23 54 0 25 -4 36 -15 36 -8 0 -15 4 -15 9 0 12 -59 71 -71 71 -5 0 -9
9 -9 21 0 22 -36 58 -57 59 -8 0 -13 16 -14 43 0 25 -3 35 -7 25 -6 -15 -9
-15 -29 2 -16 13 -23 29 -23 54 0 25 -4 36 -15 36 -8 0 -15 4 -15 9 0 12 -59
71 -71 71 -5 0 -9 9 -9 21 0 24 -37 58 -62 59 -12 0 -18 8 -18 21 0 12 -11 30
-25 41 -19 15 -25 29 -25 58 0 24 -6 44 -16 52 -69 56 -84 76 -85 114 -2 30
-3 33 -6 12 -5 -35 -16 -35 -41 -3 -11 14 -25 25 -31 25 -6 0 -11 9 -11 21 0
12 -11 30 -25 41 -19 15 -25 29 -25 59 0 28 -4 39 -15 39 -8 0 -15 -7 -15 -16
0 -13 -3 -14 -14 -4 -8 6 -13 17 -10 24 3 7 -9 25 -25 39 -17 14 -31 32 -31
41 0 16 -56 76 -71 76 -5 0 -9 9 -9 21 0 24 -37 58 -62 59 -12 0 -18 8 -18 24
0 13 -6 29 -14 36 -8 6 -13 17 -10 24 3 7 -9 25 -25 39 -17 14 -31 32 -31 41
0 16 -56 76 -71 76 -5 0 -9 9 -9 21 0 22 -36 58 -57 59 -8 0 -13 13 -13 30 0
23 -11 43 -45 77 -25 25 -45 51 -45 58 0 15 -57 75 -71 75 -5 0 -9 9 -9 21 0
22 -36 58 -57 59 -8 0 -13 15 -13 40 0 22 -3 39 -7 39 -42 -7 -53 2 -53 41 0
29 -4 40 -15 40 -8 0 -15 4 -15 10 0 5 -16 24 -35 43 -27 27 -35 42 -36 73 -1
21 -3 31 -6 22 -6 -22 -17 -23 -33 -3 -11 13 -225 15 -1811 15 -1707 0 -1799
-1 -1799 -17 0 -10 7 -47 16 -83 8 -36 16 -77 18 -92 1 -15 5 -31 9 -34 11
-12 8 -24 -7 -24 -12 0 -31 51 -27 73 0 4 -3 7 -7 7 -4 0 -9 12 -10 28 -1 15
-7 29 -12 30 -6 2 -18 11 -27 20 -16 16 -16 16 -10 -1 4 -10 7 -27 7 -38 0
-10 6 -18 13 -16 6 1 12 -7 12 -18 1 -11 4 -26 9 -33 4 -7 2 -19 -4 -27 -10
-12 -9 -15 4 -15 9 0 16 -7 16 -15 0 -8 -4 -15 -10 -15 -5 0 -10 -4 -10 -10 0
-5 5 -9 11 -7 6 1 14 -4 16 -10 3 -7 0 -13 -6 -13 -6 0 -11 -4 -11 -10 0 -5 3
-9 8 -9 20 3 23 -2 11 -18 -11 -13 -11 -17 -1 -20 15 -6 16 -33 1 -33 -5 0 -7
-5 -4 -10 4 -6 11 -8 16 -5 5 4 9 2 9 -4 0 -5 -4 -13 -10 -16 -15 -9 -12 -25
5 -25 8 0 15 -4 15 -10 0 -5 -4 -10 -10 -10 -5 0 -10 -4 -10 -10 0 -5 7 -10
16 -10 12 0 14 -3 6 -12 -6 -7 -10 -26 -9 -41 2 -25 5 -28 27 -22 14 4 36 7
50 8 14 1 30 8 35 14 9 12 802 313 823 313 5 0 12 -14 14 -31 6 -38 16 -33
-292 -148 -118 -44 -280 -105 -360 -135 -79 -31 -154 -56 -166 -56 -12 0 -24
-3 -26 -7 -4 -10 -111 -54 -278 -113 -74 -27 -173 -63 -220 -80 -47 -17 -132
-49 -190 -70 -138 -49 -241 -89 -262 -101 -10 -5 -22 -9 -28 -9 -5 0 -195 -69
-422 -154 -465 -174 -463 -173 -425 -151 29 17 34 30 16 40 -10 7 -126 -32
-134 -44 -2 -4 0 -13 5 -20 6 -11 15 -11 41 -2 18 6 34 9 36 7 2 -2 -16 -11
-41 -19 l-45 -15 -10 29 c-8 22 -7 31 2 34 7 3 55 20 107 39 132 48 225 83
440 165 102 39 188 71 193 71 4 0 26 9 50 19 23 10 76 31 117 46 124 45 900
344 909 351 1 1 -1 9 -5 16 -9 13 -10 18 -13 41 -1 7 -7 5 -16 -7 -15 -20 -35
-14 -35 13 0 19 -18 41 -34 41 -6 0 -5 -5 2 -12 16 -16 15 -28 -1 -28 -8 0
-20 18 -27 40 -16 48 -28 53 -22 9 4 -24 1 -30 -9 -27 -8 3 -14 11 -15 19 -1
8 -8 30 -17 49 -16 35 -22 26 -18 -22 1 -10 -3 -18 -8 -18 -6 0 -11 8 -11 18
0 10 -6 24 -12 30 -10 10 -10 15 2 22 13 8 12 10 -2 10 -11 0 -18 8 -18 20 0
11 -4 20 -9 20 -10 0 -9 -50 2 -67 4 -6 4 -18 1 -26 -3 -8 0 -18 5 -22 12 -7
6 -25 -8 -25 -7 0 -14 23 -22 68 0 4 -5 15 -11 26 -7 13 -6 21 3 27 9 6 10 9
2 9 -6 0 -14 13 -18 29 -8 40 -30 46 -31 10 -1 -16 3 -26 7 -23 5 3 9 -4 9
-15 0 -33 -27 -24 -34 11 -11 57 -30 88 -61 103 -17 8 -39 23 -50 35 -10 11
-22 20 -28 20 -5 0 -17 8 -26 18 -9 10 -31 25 -49 33 l-33 16 158 62 c87 35
160 65 162 67 3 2 -42 4 -98 3 -80 -1 -119 -6 -172 -24 -39 -13 -77 -21 -86
-18 -12 5 -2 12 33 24 47 17 -64 17 -2488 18 l-2538 1 0 -2515z m5900 2444 c0
-5 -7 -9 -15 -9 -15 0 -20 12 -9 23 8 8 24 -1 24 -14z m-50 -14 c0 -8 -4 -15
-9 -15 -13 0 -22 16 -14 24 11 11 23 6 23 -9z m-50 -16 c0 -11 -4 -17 -10 -14
-5 3 -10 13 -10 21 0 8 5 14 10 14 6 0 10 -9 10 -21z m97 -11 c-3 -8 -6 -5 -6
6 -1 11 2 17 5 13 3 -3 4 -12 1 -19z m-143 -3 c-4 -8 -8 -15 -10 -15 -2 0 -4
7 -4 15 0 8 4 15 10 15 5 0 7 -7 4 -15z m106 -10 c0 -8 -4 -15 -10 -15 -5 0
-10 7 -10 15 0 8 5 15 10 15 6 0 10 -7 10 -15z m-150 -10 c0 -8 -4 -15 -10
-15 -5 0 -10 7 -10 15 0 8 5 15 10 15 6 0 10 -7 10 -15z m100 -10 c0 -8 -4
-15 -10 -15 -5 0 -10 7 -10 15 0 8 5 15 10 15 6 0 10 -7 10 -15z m97 -7 c-3
-8 -6 -5 -6 6 -1 11 2 17 5 13 3 -3 4 -12 1 -19z m-137 -9 c0 -5 -7 -9 -15 -9
-15 0 -20 12 -9 23 8 8 24 -1 24 -14z m100 -10 c0 -5 -4 -9 -10 -9 -5 0 -10 7
-10 16 0 8 5 12 10 9 6 -3 10 -10 10 -16z m-150 -4 c0 -8 -4 -15 -10 -15 -5 0
-10 7 -10 15 0 8 5 15 10 15 6 0 10 -7 10 -15z m100 -10 c0 -8 -4 -15 -10 -15
-5 0 -10 7 -10 15 0 8 5 15 10 15 6 0 10 -7 10 -15z m96 -22 c-10 -10 -19 5
-10 18 6 11 8 11 12 0 2 -7 1 -15 -2 -18z m-1873 -5 c3 -13 9 -44 12 -70 l7
-48 -48 6 c-27 4 -53 11 -59 15 -5 5 -20 9 -35 9 -14 0 -34 7 -44 15 -11 8
-29 13 -40 10 -30 -7 37 24 119 56 87 34 82 33 88 7z m1731 7 c-4 -8 -10 -12
-15 -9 -14 8 -10 24 6 24 9 0 12 -6 9 -15z m106 -5 c0 -5 -7 -10 -15 -10 -8 0
-15 5 -15 10 0 6 7 10 15 10 8 0 15 -4 15 -10z m-150 -10 c0 -5 -4 -10 -10
-10 -5 0 -10 5 -10 10 0 6 5 10 10 10 6 0 10 -4 10 -10z m100 -5 c0 -8 -4 -15
-10 -15 -5 0 -10 7 -10 15 0 8 5 15 10 15 6 0 10 -7 10 -15z m100 -11 c0 -8
-5 -12 -10 -9 -6 4 -8 11 -5 16 9 14 15 11 15 -7z m-146 -9 c-4 -8 -10 -12
-15 -9 -14 8 -10 24 6 24 9 0 12 -6 9 -15z m-44 -4 c0 -6 -4 -13 -10 -16 -5
-3 -10 1 -10 9 0 9 5 16 10 16 6 0 10 -4 10 -9z m150 -12 c0 -5 -4 -9 -10 -9
-5 0 -10 7 -10 16 0 8 5 12 10 9 6 -3 10 -10 10 -16z m-1480 -9 c-8 -5 -19
-10 -25 -10 -5 0 -3 5 5 10 8 5 20 10 25 10 6 0 3 -5 -5 -10z m1288 -33 c1
-20 -2 -37 -8 -37 -5 0 -10 8 -10 18 0 9 -3 28 -7 41 -4 18 -2 22 8 19 8 -3
15 -21 17 -41z m142 33 c0 -5 -4 -10 -10 -10 -5 0 -10 5 -10 10 0 6 5 10 10
10 6 0 10 -4 10 -10z m96 -17 c-10 -10 -19 5 -10 18 6 11 8 11 12 0 2 -7 1
-15 -2 -18z m-138 5 c-6 -18 -28 -21 -28 -4 0 9 7 16 16 16 9 0 14 -5 12 -12z
m-1430 -4 c-3 -3 -80 -31 -353 -130 -82 -30 -156 -61 -165 -69 -23 -21 -89
-47 -101 -40 -5 4 -58 -10 -118 -30 -59 -19 -122 -37 -140 -40 -17 -2 -54 -11
-82 -20 -85 -29 -66 -9 25 26 47 18 84 34 81 37 -2 2 -18 -1 -36 -7 -27 -9
-52 -8 -38 2 14 10 370 147 383 147 8 0 19 -7 24 -16 7 -13 22 -10 117 25 112
43 130 47 120 31 -3 -5 48 10 114 33 65 23 118 44 116 47 -2 3 10 5 26 6 16 1
28 0 27 -2z m873 -1 c0 -5 2 -23 4 -41 2 -21 -1 -32 -9 -29 -6 2 -10 12 -10
21 1 9 -2 16 -7 16 -5 0 -9 9 -9 20 0 18 29 30 31 13z m659 -8 c0 -8 -4 -15
-9 -15 -5 0 -11 7 -15 15 -3 9 0 15 9 15 8 0 15 -7 15 -15z m-150 1 c0 -3 -4
-8 -10 -11 -5 -3 -10 -1 -10 4 0 6 5 11 10 11 6 0 10 -2 10 -4z m-557 -20 c6
-16 -1 -26 -19 -26 -10 0 -12 15 -5 38 3 8 20 0 24 -12z m657 4 c0 -5 -4 -10
-10 -10 -5 0 -10 5 -10 10 0 6 5 10 10 10 6 0 10 -4 10 -10z m96 -17 c-10 -10
-19 5 -10 18 6 11 8 11 12 0 2 -7 1 -15 -2 -18z m-806 -8 c0 -8 -4 -15 -10
-15 -5 0 -10 7 -10 15 0 8 5 15 10 15 6 0 10 -7 10 -15z m757 -7 c-3 -8 -6 -5
-6 6 -1 11 2 17 5 13 3 -3 4 -12 1 -19z m-137 -4 c0 -8 -5 -12 -10 -9 -6 4 -8
11 -5 16 9 14 15 11 15 -7z m-660 -15 c0 -5 -7 -9 -15 -9 -15 0 -20 12 -9 23
8 8 24 -1 24 -14z m760 6 c0 -8 -4 -15 -10 -15 -5 0 -10 7 -10 15 0 8 5 15 10
15 6 0 10 -7 10 -15z m-660 -10 c0 -8 -4 -15 -10 -15 -5 0 -10 7 -10 15 0 8 5
15 10 15 6 0 10 -7 10 -15z m510 0 c0 -8 -4 -15 -10 -15 -5 0 -10 7 -10 15 0
8 5 15 10 15 6 0 10 -7 10 -15z m250 5 c0 -5 -4 -10 -10 -10 -5 0 -10 5 -10
10 0 6 5 10 10 10 6 0 10 -4 10 -10z m-910 -15 c0 -8 -4 -15 -9 -15 -13 0 -22
16 -14 24 11 11 23 6 23 -9z m864 0 c3 -8 1 -15 -4 -15 -6 0 -10 7 -10 15 0 8
2 15 4 15 2 0 6 -7 10 -15z m-760 -10 c-4 -8 -10 -15 -15 -15 -5 0 -9 7 -9 15
0 8 7 15 15 15 9 0 12 -6 9 -15z m106 -11 c0 -8 -4 -14 -10 -14 -5 0 -10 9
-10 21 0 11 5 17 10 14 6 -3 10 -13 10 -21z m510 5 c0 -6 -4 -7 -10 -4 -5 3
-10 11 -10 16 0 6 5 7 10 4 6 -3 10 -11 10 -16z m-770 2 c0 -6 -4 -13 -10 -16
-5 -3 -10 1 -10 9 0 9 5 16 10 16 6 0 10 -4 10 -9z m870 -6 c0 -8 -4 -15 -10
-15 -5 0 -10 7 -10 15 0 8 5 15 10 15 6 0 10 -7 10 -15z m-770 -5 c0 -5 -2
-10 -4 -10 -3 0 -8 5 -11 10 -3 6 -1 10 4 10 6 0 11 -4 11 -10z m110 -10 c0
-21 -15 -27 -25 -10 -7 12 2 30 16 30 5 0 9 -9 9 -20z m510 5 c0 -8 -4 -15
-10 -15 -5 0 -10 7 -10 15 0 8 5 15 10 15 6 0 10 -7 10 -15z m250 0 c0 -8 -4
-15 -10 -15 -5 0 -10 7 -10 15 0 8 5 15 10 15 6 0 10 -7 10 -15z m-1020 -5 c0
-5 -4 -10 -10 -10 -5 0 -10 5 -10 10 0 6 5 10 10 10 6 0 10 -4 10 -10z m110
-11 c0 -5 -7 -9 -15 -9 -9 0 -12 6 -9 15 6 15 24 11 24 -6z m260 6 c0 -8 -7
-15 -15 -15 -8 0 -15 7 -15 15 0 8 7 15 15 15 8 0 15 -7 15 -15z m596 -12
c-10 -10 -19 5 -10 18 6 11 8 11 12 0 2 -7 1 -15 -2 -18z m-1016 7 c0 -5 -5
-10 -11 -10 -5 0 -7 5 -4 10 3 6 8 10 11 10 2 0 4 -4 4 -10z m260 -5 c0 -8 -4
-15 -10 -15 -5 0 -10 7 -10 15 0 8 5 15 10 15 6 0 10 -7 10 -15z m-1955 -5 c3
-5 20 -10 38 -10 22 0 28 -3 20 -11 -12 -12 -321 -129 -340 -129 -17 0 -17 54
0 68 10 8 247 89 269 91 4 1 10 -3 13 -9z m2062 -16 c-9 -9 -28 6 -21 18 4 6
10 6 17 -1 6 -6 8 -13 4 -17z m-257 6 c0 -5 -4 -10 -10 -10 -5 0 -10 5 -10 10
0 6 5 10 10 10 6 0 10 -4 10 -10z m104 1 c3 -5 -1 -11 -9 -15 -9 -3 -15 0 -15
9 0 16 16 20 24 6z m766 -1 c0 -5 -4 -10 -10 -10 -5 0 -10 5 -10 10 0 6 5 10
10 10 6 0 10 -4 10 -10z m100 -5 c0 -8 -4 -15 -10 -15 -5 0 -10 7 -10 15 0 8
5 15 10 15 6 0 10 -7 10 -15z m-1020 -4 c0 -6 -4 -13 -10 -16 -5 -3 -10 1 -10
9 0 9 5 16 10 16 6 0 10 -4 10 -9z m370 -12 c0 -5 -7 -9 -15 -9 -15 0 -20 12
-9 23 8 8 24 -1 24 -14z m-266 -4 c-4 -8 -7 -15 -9 -15 -2 0 -5 7 -9 15 -3 9
0 15 9 15 9 0 12 -6 9 -15z m866 0 c0 -8 -2 -15 -4 -15 -2 0 -6 7 -10 15 -3 8
-1 15 4 15 6 0 10 -7 10 -15z m-1020 1 c0 -3 -4 -8 -10 -11 -5 -3 -10 -1 -10
4 0 6 5 11 10 11 6 0 10 -2 10 -4z m367 -22 c-9 -9 -28 6 -21 18 4 6 10 6 17
-1 6 -6 8 -13 4 -17z m513 11 c0 -8 -2 -15 -4 -15 -2 0 -6 7 -10 15 -3 8 -1
15 4 15 6 0 10 -7 10 -15z m-1035 -5 c3 -5 1 -10 -4 -10 -6 0 -11 5 -11 10 0
6 2 10 4 10 3 0 8 -4 11 -10z m265 0 c0 -5 -4 -10 -10 -10 -5 0 -10 5 -10 10
0 6 5 10 10 10 6 0 10 -4 10 -10z m97 -12 c-3 -8 -6 -5 -6 6 -1 11 2 17 5 13
3 -3 4 -12 1 -19z m619 -5 c-10 -10 -19 5 -10 18 6 11 8 11 12 0 2 -7 1 -15
-2 -18z m154 17 c0 -5 -4 -10 -9 -10 -6 0 -13 5 -16 10 -3 6 1 10 9 10 9 0 16
-4 16 -10z m-920 -21 c0 -5 -4 -9 -10 -9 -5 0 -10 7 -10 16 0 8 5 12 10 9 6
-3 10 -10 10 -16z m104 -10 c-3 -5 -10 -7 -15 -3 -5 3 -7 10 -3 15 3 5 10 7
15 3 5 -3 7 -10 3 -15z m256 11 c0 -5 -2 -10 -4 -10 -3 0 -8 5 -11 10 -3 6 -1
10 4 10 6 0 11 -4 11 -10z m-1310 -10 c0 -5 -4 -10 -10 -10 -5 0 -10 5 -10 10
0 6 5 10 10 10 6 0 10 -4 10 -10z m900 0 c0 -5 -5 -10 -11 -10 -5 0 -7 5 -4
10 3 6 8 10 11 10 2 0 4 -4 4 -10z m260 0 c0 -5 -4 -10 -10 -10 -5 0 -10 5
-10 10 0 6 5 10 10 10 6 0 10 -4 10 -10z m615 0 c3 -5 1 -10 -4 -10 -6 0 -11
5 -11 10 0 6 2 10 4 10 3 0 8 -4 11 -10z m-765 -10 c0 -5 -4 -10 -10 -10 -5 0
-10 5 -10 10 0 6 5 10 10 10 6 0 10 -4 10 -10z m260 0 c0 -5 -4 -10 -9 -10 -6
0 -13 5 -16 10 -3 6 1 10 9 10 9 0 16 -4 16 -10z m100 -5 c0 -8 -4 -15 -10
-15 -5 0 -10 7 -10 15 0 8 5 15 10 15 6 0 10 -7 10 -15z m-260 -5 c0 -5 -5
-10 -11 -10 -5 0 -7 5 -4 10 3 6 8 10 11 10 2 0 4 -4 4 -10z m368 -1 c-2 -6
-8 -10 -13 -10 -5 0 -11 4 -13 10 -2 6 4 11 13 11 9 0 15 -5 13 -11z m-148
-14 c0 -8 -7 -15 -15 -15 -8 0 -15 7 -15 15 0 8 7 15 15 15 8 0 15 -7 15 -15z
m-160 -10 c0 -8 -4 -15 -10 -15 -5 0 -10 7 -10 15 0 8 5 15 10 15 6 0 10 -7
10 -15z m255 5 c3 -5 1 -10 -4 -10 -6 0 -11 5 -11 10 0 6 2 10 4 10 3 0 8 -4
11 -10z m113 -8 c2 -7 -3 -12 -12 -12 -9 0 -16 7 -16 16 0 17 22 14 28 -4z
m-1558 4 c0 -3 -4 -8 -10 -11 -5 -3 -10 -1 -10 4 0 6 5 11 10 11 6 0 10 -2 10
-4z m1035 -6 c3 -5 1 -10 -4 -10 -6 0 -11 5 -11 10 0 6 2 10 4 10 3 0 8 -4 11
-10z m260 0 c3 -5 1 -10 -4 -10 -6 0 -11 5 -11 10 0 6 2 10 4 10 3 0 8 -4 11
-10z m-1870 -10 c-3 -5 -12 -10 -18 -10 -7 0 -6 4 3 10 19 12 23 12 15 0z
m456 -23 c10 -37 -11 -57 -54 -51 -17 3 -59 8 -91 12 l-59 7 74 32 c91 38 120
38 130 0z m1519 23 c0 -5 -4 -10 -10 -10 -5 0 -10 5 -10 10 0 6 5 10 10 10 6
0 10 -4 10 -10z m108 -8 c2 -7 -3 -12 -12 -12 -9 0 -16 7 -16 16 0 17 22 14
28 -4z m106 -14 c-3 -4 -12 -8 -20 -8 -17 0 -19 27 -1 33 14 5 28 -13 21 -25z
m396 22 c0 -5 -4 -10 -10 -10 -5 0 -10 5 -10 10 0 6 5 10 10 10 6 0 10 -4 10
-10z m-445 -30 c0 -7 -6 -15 -12 -17 -8 -3 -13 4 -13 17 0 13 5 20 13 18 6 -3
12 -11 12 -18z m-269 -17 c-10 -10 -19 5 -10 18 6 11 8 11 12 0 2 -7 1 -15 -2
-18z m-138 5 c-6 -18 -28 -21 -28 -4 0 9 7 16 16 16 9 0 14 -5 12 -12z m252 2
c0 -5 -4 -10 -10 -10 -5 0 -10 5 -10 10 0 6 5 10 10 10 6 0 10 -4 10 -10z
m103 -16 c-4 -10 -9 -12 -15 -6 -12 12 -1 35 12 27 5 -3 6 -13 3 -21z m407 16
c0 -5 -4 -10 -9 -10 -6 0 -13 5 -16 10 -3 6 1 10 9 10 9 0 16 -4 16 -10z
m-2704 -25 c14 -14 30 -25 37 -26 9 0 9 -2 0 -6 -19 -7 -15 -54 6 -77 10 -12
23 -43 29 -69 l10 -49 -52 -22 c-76 -33 -135 -50 -144 -42 -4 4 -7 42 -8 84 0
43 -5 85 -11 96 -15 27 1 87 32 114 34 29 70 28 101 -3z m2646 3 c-7 -7 -12
-8 -12 -2 0 14 12 26 19 19 2 -3 -1 -11 -7 -17z m-32 -22 c0 -5 -7 -3 -15 4
-8 7 -12 17 -9 22 7 10 24 -9 24 -26z m-410 -7 c0 -5 -4 -9 -10 -9 -5 0 -10 7
-10 16 0 8 5 12 10 9 6 -3 10 -10 10 -16z m508 10 c-2 -6 -8 -10 -13 -10 -5 0
-11 4 -13 10 -2 6 4 11 13 11 9 0 15 -5 13 -11z m102 -4 c0 -8 -7 -15 -15 -15
-8 0 -15 7 -15 15 0 8 7 15 15 15 8 0 15 -7 15 -15z m-95 -35 c3 -5 -1 -10 -9
-10 -9 0 -16 5 -16 10 0 6 4 10 9 10 6 0 13 -4 16 -10z m-295 -20 c0 -5 -4
-10 -10 -10 -5 0 -10 5 -10 10 0 6 5 10 10 10 6 0 10 -4 10 -10z m250 0 c0 -5
-2 -10 -4 -10 -3 0 -8 5 -11 10 -3 6 -1 10 4 10 6 0 11 -4 11 -10z m-1028 -15
c0 -5 -5 -11 -11 -13 -6 -2 -11 4 -11 13 0 9 5 15 11 13 6 -2 11 -8 11 -13z
m1128 5 c0 -5 -2 -10 -4 -10 -3 0 -8 5 -11 10 -3 6 -1 10 4 10 6 0 11 -4 11
-10z m-1510 -14 c0 -8 3 -21 6 -29 4 -11 -1 -13 -20 -10 -14 3 -23 9 -21 14 3
4 -12 6 -32 3 l-38 -5 40 20 c49 24 65 25 65 7z m1460 4 c0 -5 -4 -10 -10 -10
-5 0 -10 5 -10 10 0 6 5 10 10 10 6 0 10 -4 10 -10z m-1390 -10 c0 -5 -5 -10
-11 -10 -5 0 -7 5 -4 10 3 6 8 10 11 10 2 0 4 -4 4 -10z m987 -12 c-3 -8 -6
-5 -6 6 -1 11 2 17 5 13 3 -3 4 -12 1 -19z m108 3 c3 -5 1 -12 -5 -16 -5 -3
-10 1 -10 9 0 18 6 21 15 7z m250 -1 c3 -5 1 -10 -4 -10 -6 0 -11 5 -11 10 0
6 2 10 4 10 3 0 8 -4 11 -10z m-198 -32 c-3 -8 -6 -5 -6 6 -1 11 2 17 5 13 3
-3 4 -12 1 -19z m253 12 c0 -5 -2 -10 -4 -10 -3 0 -8 5 -11 10 -3 6 -1 10 4
10 6 0 11 -4 11 -10z m97 -22 c-3 -8 -6 -5 -6 6 -1 11 2 17 5 13 3 -3 4 -12 1
-19z m-142 2 c3 -5 1 -10 -4 -10 -6 0 -11 5 -11 10 0 6 2 10 4 10 3 0 8 -4 11
-10z m105 -10 c0 -5 -4 -10 -10 -10 -5 0 -10 5 -10 10 0 6 5 10 10 10 6 0 10
-4 10 -10z m-50 -15 c0 -8 -4 -15 -10 -15 -5 0 -10 7 -10 15 0 8 5 15 10 15 6
0 10 -7 10 -15z m-303 -27 c-3 -8 -6 -5 -6 6 -1 11 2 17 5 13 3 -3 4 -12 1
-19z m263 18 c0 -3 -4 -8 -10 -11 -5 -3 -10 -1 -10 4 0 6 5 11 10 11 6 0 10
-2 10 -4z m-150 -21 c0 -8 -4 -15 -10 -15 -5 0 -10 7 -10 15 0 8 5 15 10 15 6
0 10 -7 10 -15z m245 5 c3 -5 1 -10 -4 -10 -6 0 -11 5 -11 10 0 6 2 10 4 10 3
0 8 -4 11 -10z m-49 -27 c-10 -10 -19 5 -10 18 6 11 8 11 12 0 2 -7 1 -15 -2
-18z m104 1 c0 -8 -5 -12 -10 -9 -6 4 -8 11 -5 16 9 14 15 11 15 -7z m-153
-16 c-3 -8 -6 -5 -6 6 -1 11 2 17 5 13 3 -3 4 -12 1 -19z m-547 -20 c0 -18 -2
-20 -9 -8 -6 8 -7 18 -5 22 9 14 14 9 14 -14z m610 1 c0 -5 -4 -9 -10 -9 -5 0
-10 7 -10 16 0 8 5 12 10 9 6 -3 10 -10 10 -16z m-291 -46 c1 -6 -17 -14 -39
-18 -22 -4 -44 -13 -48 -21 -7 -12 -11 -10 -22 11 -16 29 -18 26 45 52 52 21
62 17 64 -24z m391 37 c0 -5 -2 -10 -4 -10 -3 0 -8 5 -11 10 -3 6 -1 10 4 10
6 0 11 -4 11 -10z m-40 -10 c0 -5 -4 -10 -10 -10 -5 0 -10 5 -10 10 0 6 5 10
10 10 6 0 10 -4 10 -10z m-47 -15 c8 -18 -11 -31 -25 -17 -11 11 -3 32 12 32
4 0 10 -7 13 -15z m-863 -13 c0 -13 -12 -22 -22 -16 -10 6 -1 24 13 24 5 0 9
-4 9 -8z m820 -13 c0 -5 -7 -9 -15 -9 -15 0 -20 12 -9 23 8 8 24 -1 24 -14z
m-394 -8 c0 -11 -3 -18 -7 -15 -4 2 -10 -2 -12 -8 -4 -10 -8 -9 -16 2 -8 11
-6 18 6 28 23 17 29 15 29 -7z m-476 -1 c0 -5 -4 -10 -10 -10 -5 0 -10 5 -10
10 0 6 5 10 10 10 6 0 10 -4 10 -10z m707 -12 c-3 -8 -6 -5 -6 6 -1 11 2 17 5
13 3 -3 4 -12 1 -19z m263 18 c0 -3 -4 -8 -10 -11 -5 -3 -10 -1 -10 4 0 6 5
11 10 11 6 0 10 -2 10 -4z m-664 -33 c-10 -10 -19 5 -10 18 6 11 8 11 12 0 2
-7 1 -15 -2 -18z m610 0 c-10 -10 -19 5 -10 18 6 11 8 11 12 0 2 -7 1 -15 -2
-18z m-2387 3 l45 -13 -144 -56 c-78 -32 -147 -57 -151 -57 -12 0 -11 41 1 60
7 11 169 75 200 79 3 0 25 -5 49 -13z m1901 -1 c0 -8 -2 -15 -4 -15 -2 0 -12
-3 -22 -7 -12 -4 -15 -3 -10 5 4 7 1 12 -8 12 -9 0 -15 -5 -13 -11 1 -6 -4
-14 -10 -16 -23 -8 -14 24 10 35 32 15 57 14 57 -3z m590 5 c0 -5 -4 -10 -10
-10 -5 0 -10 5 -10 10 0 6 5 10 10 10 6 0 10 -4 10 -10z m-2056 -16 c10 -27 8
-29 -64 -54 -61 -21 -72 -23 -80 -10 -16 25 -6 34 56 57 72 27 80 27 88 7z
m1907 3 c-1 -12 -15 -9 -19 4 -3 6 1 10 8 8 6 -3 11 -8 11 -12z m96 -9 c-3 -8
-6 -5 -6 6 -1 11 2 17 5 13 3 -3 4 -12 1 -19z m-37 -13 c0 -8 -4 -15 -10 -15
-5 0 -10 7 -10 15 0 8 5 15 10 15 6 0 10 -7 10 -15z m-1844 -32 c0 -1 -30 -12
-66 -26 -36 -14 -73 -28 -83 -32 -11 -5 -17 -3 -15 3 4 14 -3 16 -29 8 -23 -7
-32 -26 -13 -26 6 0 10 5 10 10 0 6 5 10 10 10 6 0 10 -4 10 -9 0 -5 -30 -19
-67 -31 -38 -12 -83 -28 -101 -37 -45 -20 -162 -62 -162 -58 0 2 -2 10 -5 18
-8 19 78 51 132 48 23 -1 44 3 48 10 5 8 -2 9 -26 5 -45 -8 -41 -6 166 73 155
59 181 66 186 52 4 -9 6 -17 5 -18z m1194 17 c0 -5 -7 -10 -16 -10 -8 0 -12 5
-9 10 3 6 10 10 16 10 5 0 9 -4 9 -10z m250 1 c0 -6 -4 -12 -8 -15 -5 -3 -9 1
-9 9 0 8 4 15 9 15 4 0 8 -4 8 -9z m354 -6 c-4 -8 -2 -21 3 -28 14 -19 16 -67
3 -67 -7 0 -10 8 -7 20 3 10 1 20 -3 22 -4 2 -11 18 -15 36 -5 25 -3 32 9 32
10 0 13 -6 10 -15z m96 -5 c0 -5 -4 -10 -10 -10 -5 0 -10 5 -10 10 0 6 5 10
10 10 6 0 10 -4 10 -10z m-752 -17 c-2 -9 -9 -18 -17 -21 -8 -3 -11 0 -7 7 4
6 1 11 -6 11 -9 0 -9 3 2 10 22 14 32 12 28 -7z m717 -25 c5 -18 3 -28 -4 -28
-6 0 -11 6 -11 13 0 6 -3 23 -6 37 -5 17 -4 22 4 15 6 -5 14 -22 17 -37z
m-2175 16 l-35 -14 35 5 c32 5 33 4 10 -6 -14 -6 -33 -15 -42 -20 -11 -6 -18
-6 -18 0 0 5 6 12 13 15 15 8 -34 -1 -60 -11 -10 -3 -16 -4 -13 0 9 10 104 45
125 45 13 0 7 -5 -15 -14z m1195 7 c3 -5 1 -12 -5 -16 -5 -3 -10 1 -10 9 0 18
6 21 15 7z m1075 -7 c0 -8 -4 -12 -10 -9 -5 3 -10 10 -10 16 0 5 5 9 10 9 6 0
10 -7 10 -16z m-860 -9 c0 -8 -4 -15 -10 -15 -5 0 -10 7 -10 15 0 8 5 15 10
15 6 0 10 -7 10 -15z m-50 -16 c0 -18 -2 -20 -15 -9 -13 11 -13 15 -3 21 18
12 18 12 18 -12z m611 -2 c-13 -13 -26 -3 -16 12 3 6 11 8 17 5 6 -4 6 -10 -1
-17z m259 13 c0 -5 -4 -10 -9 -10 -6 0 -13 5 -16 10 -3 6 1 10 9 10 9 0 16 -4
16 -10z m-1285 -30 c3 -5 1 -10 -4 -10 -6 0 -11 5 -11 10 0 6 2 10 4 10 3 0 8
-4 11 -10z m373 -9 c3 -8 -1 -12 -9 -9 -7 2 -15 10 -17 17 -3 8 1 12 9 9 7 -2
15 -10 17 -17z m916 -23 c4 -17 2 -28 -4 -28 -5 0 -10 14 -10 32 0 36 4 35 14
-4z m-44 7 c0 -8 -4 -15 -9 -15 -13 0 -22 16 -14 24 11 11 23 6 23 -9z m220
-19 c0 -17 -10 -26 -48 -39 l-49 -18 5 -49 c3 -33 1 -50 -7 -50 -6 0 -11 4
-11 10 0 5 -6 7 -14 4 -8 -3 -12 -12 -9 -20 3 -8 0 -14 -6 -14 -6 0 -11 5 -11
11 0 6 -6 9 -12 7 -7 -3 -13 -11 -13 -18 0 -21 -23 -23 -28 -3 -3 14 -6 12
-17 -12 -7 -17 -14 -24 -17 -17 -3 6 -15 12 -28 12 -32 0 -40 35 -12 56 l22
16 -23 -5 c-17 -4 -23 0 -28 18 -7 28 1 45 21 45 11 0 12 7 4 32 -12 43 -11
50 2 46 7 -2 13 -17 15 -32 2 -16 5 -30 7 -32 2 -3 34 6 71 19 36 14 66 22 66
18 0 -3 4 -1 8 5 8 13 94 43 105 37 4 -2 7 -14 7 -27z m-1195 14 c-3 -5 -14
-10 -23 -10 -15 0 -15 2 -2 10 20 13 33 13 25 0z m1075 6 c0 -3 -4 -8 -10 -11
-5 -3 -10 -1 -10 4 0 6 5 11 10 11 6 0 10 -2 10 -4z m-250 -16 c0 -5 -2 -10
-4 -10 -3 0 -8 5 -11 10 -3 6 -1 10 4 10 6 0 11 -4 11 -10z m-870 -20 c0 -11
-5 -20 -11 -20 -5 0 -7 5 -4 10 3 6 -2 10 -12 10 -15 0 -16 2 -3 10 23 15 30
12 30 -10z m1030 -5 c0 -8 -4 -15 -10 -15 -5 0 -10 7 -10 15 0 8 5 15 10 15 6
0 10 -7 10 -15z m-1080 -10 c0 -8 -4 -15 -10 -15 -5 0 -10 7 -10 15 0 8 5 15
10 15 6 0 10 -7 10 -15z m-2513 -27 c-3 -8 -6 -5 -6 6 -1 11 2 17 5 13 3 -3 4
-12 1 -19z m2467 7 c3 -9 0 -15 -8 -15 -7 0 -13 7 -13 15 0 8 4 15 8 15 4 0 9
-7 13 -15z m-44 -20 c0 -8 -4 -15 -9 -15 -5 0 -11 7 -15 15 -3 9 0 15 9 15 8
0 15 -7 15 -15z m-55 -5 c-3 -5 -14 -10 -23 -10 -15 0 -15 2 -2 10 20 13 33
13 25 0z m975 0 c0 -5 -5 -10 -11 -10 -5 0 -7 5 -4 10 3 6 8 10 11 10 2 0 4
-4 4 -10z m40 -5 c0 -8 -2 -15 -4 -15 -2 0 -6 7 -10 15 -3 8 -1 15 4 15 6 0
10 -7 10 -15z m-3362 -60 c0 -16 -2 -15 -8 5 -4 14 -8 34 -8 45 0 16 2 15 8
-5 4 -14 8 -34 8 -45z m2242 55 c0 -5 -4 -10 -10 -10 -5 0 -10 5 -10 10 0 6 5
10 10 10 6 0 10 -4 10 -10z m940 1 c0 -6 -4 -13 -10 -16 -5 -3 -10 1 -10 9 0
9 5 16 10 16 6 0 10 -4 10 -9z m104 0 c3 -5 -1 -14 -9 -21 -13 -10 -15 -9 -15
9 0 21 14 28 24 12z m-984 -21 c0 -24 -6 -25 -26 -6 -11 11 -11 16 -1 19 22
10 27 7 27 -13z m940 -5 c0 -8 -7 -15 -15 -15 -16 0 -20 12 -8 23 11 12 23 8
23 -8z m-990 -30 c0 -5 -5 -3 -10 5 -5 8 -10 20 -10 25 0 6 5 3 10 -5 5 -8 10
-19 10 -25z m-46 0 c3 -8 1 -15 -4 -15 -6 0 -10 7 -10 15 0 8 2 15 4 15 2 0 6
-7 10 -15z m1136 -15 c0 -5 -2 -10 -4 -10 -3 0 -8 5 -11 10 -3 6 -1 10 4 10 6
0 11 -4 11 -10z m-2401 -22 c0 -13 -3 -17 -6 -10 -2 6 -12 12 -21 12 -15 0
-15 2 -2 10 23 15 30 12 29 -12z m-932 -20 c-3 -7 -5 -2 -5 12 0 14 2 19 5 13
2 -7 2 -19 0 -25z m1224 15 c1 -10 1 -21 0 -25 0 -5 5 -8 12 -8 16 -1 -51 -36
-85 -44 -24 -5 -28 -3 -34 20 -8 31 -1 39 51 57 54 20 55 20 56 0z m2469 -3
c0 -5 -4 -10 -10 -10 -5 0 -10 5 -10 10 0 6 5 10 10 10 6 0 10 -4 10 -10z
m-36 -32 c20 -40 20 -68 1 -68 -22 0 -82 -32 -69 -37 6 -2 35 5 63 17 97 38
172 61 182 55 20 -13 7 -27 -46 -51 -52 -24 -78 -53 -36 -39 14 4 21 0 26 -14
8 -25 -1 -41 -21 -41 -17 0 -16 3 -5 -38 9 -31 8 -33 -27 -47 -20 -9 -47 -18
-60 -22 -21 -5 -23 -3 -20 22 2 21 12 31 43 43 46 17 50 20 44 27 -6 6 -110
-33 -123 -46 -6 -6 -3 -9 8 -9 28 0 18 -54 -11 -58 -13 -2 -23 -8 -23 -13 0
-20 -18 -8 -22 16 -4 17 1 29 16 40 l21 16 -23 -5 c-35 -7 -48 33 -19 57 l22
18 -22 -6 c-16 -4 -23 -1 -28 14 -7 24 1 41 20 41 8 0 17 5 21 11 5 9 -1 10
-19 5 -20 -5 -29 -2 -37 15 -7 11 -10 22 -8 23 37 24 60 34 91 40 36 7 41 13
38 49 -3 26 6 21 23 -15z m136 7 c0 -19 -7 -28 -27 -35 -16 -6 -38 -16 -50
-22 -26 -13 -30 -11 -33 17 -4 37 0 45 23 45 12 0 29 5 37 10 28 18 50 12 50
-15z m-1800 -4 c0 -14 -14 -25 -52 -39 -29 -11 -129 -50 -222 -86 -93 -37
-170 -65 -171 -64 -1 2 -5 12 -9 23 -5 18 16 28 217 102 122 45 225 82 230 82
4 1 7 -8 7 -18z m1297 -3 c-3 -8 -6 -5 -6 6 -1 11 2 17 5 13 3 -3 4 -12 1 -19z
m323 -4 c0 -8 -7 -14 -15 -14 -15 0 -21 21 -9 33 10 9 24 -2 24 -19z m340 22
c0 -2 3 -11 6 -20 4 -10 -7 -21 -35 -35 -53 -28 -71 -27 -71 3 0 18 9 28 38
39 37 16 62 21 62 13z m-392 -37 c-2 -6 -8 -10 -13 -10 -5 0 -11 4 -13 10 -2
6 4 11 13 11 9 0 15 -5 13 -11z m-1288 -19 c0 -5 -4 -10 -10 -10 -5 0 -10 5
-10 10 0 6 5 10 10 10 6 0 10 -4 10 -10z m-54 -27 c-10 -10 -19 5 -10 18 6 11
8 11 12 0 2 -7 1 -15 -2 -18z m-1002 -113 c54 -230 65 -277 90 -390 14 -63 48
-209 75 -325 27 -115 51 -230 55 -255 10 -77 -28 63 -74 270 -46 205 -64 284
-109 472 -17 69 -40 170 -51 225 -12 54 -24 107 -27 118 -3 13 -2 17 4 10 6
-5 22 -62 37 -125z m1321 110 c3 -5 1 -10 -4 -10 -6 0 -11 5 -11 10 0 6 2 10
4 10 3 0 8 -4 11 -10z m831 -37 c-10 -10 -19 5 -10 18 6 11 8 11 12 0 2 -7 1
-15 -2 -18z m-456 2 c0 -8 -2 -15 -4 -15 -2 0 -6 7 -10 15 -3 8 -1 15 4 15 6
0 10 -7 10 -15z m-2230 -31 c0 -8 -4 -14 -10 -14 -5 0 -10 9 -10 21 0 11 5 17
10 14 6 -3 10 -13 10 -21z m-127 1 c4 -8 2 -17 -3 -20 -6 -4 -10 3 -10 14 0
25 6 27 13 6z m2057 0 c0 -8 -4 -15 -10 -15 -5 0 -10 7 -10 15 0 8 5 15 10 15
6 0 10 -7 10 -15z m2145 -10 c130 -34 195 -86 195 -156 0 -40 -10 -55 -67
-100 -46 -37 -219 -49 -331 -24 -161 37 -251 138 -190 213 21 25 86 62 126 71
61 15 203 12 267 -4z m-2770 -6 c4 -6 5 -12 2 -15 -7 -7 -298 -124 -308 -124
-5 0 -9 10 -9 23 0 20 11 27 83 52 45 16 109 39 142 51 71 26 82 28 90 13z
m-628 -5 c-3 -3 -12 -4 -19 -1 -8 3 -5 6 6 6 11 1 17 -2 13 -5z m1623 -9 c0
-8 -4 -15 -10 -15 -5 0 -10 7 -10 15 0 8 5 15 10 15 6 0 10 -7 10 -15z m-1680
-17 c0 -18 -2 -20 -9 -8 -6 8 -7 18 -5 22 9 14 14 9 14 -14z m220 -9 c0 -6
-78 -39 -93 -39 -6 0 -11 40 -4 40 1 0 20 7 42 14 38 13 54 9 55 -15z m890 21
c0 -5 -4 -10 -10 -10 -5 0 -10 5 -10 10 0 6 5 10 10 10 6 0 10 -4 10 -10z
m1630 -4 c0 -2 3 -11 6 -20 4 -10 -5 -19 -28 -29 -73 -31 -78 -31 -78 -3 0 20
8 29 33 40 31 14 67 20 67 12z m-3330 -27 c0 -11 -4 -17 -10 -14 -5 3 -10 13
-10 21 0 8 5 14 10 14 6 0 10 -9 10 -21z m627 15 c-3 -3 -12 -4 -19 -1 -8 3
-5 6 6 6 11 1 17 -2 13 -5z m913 -4 c0 -5 -5 -10 -11 -10 -5 0 -7 5 -4 10 3 6
8 10 11 10 2 0 4 -4 4 -10z m421 -13 c-13 -13 -26 -3 -16 12 3 6 11 8 17 5 6
-4 6 -10 -1 -17z m-2610 -14 c6 -15 13 -23 17 -18 8 12 44 16 37 5 -5 -9 -279
-120 -295 -120 -14 0 -12 43 3 62 6 8 53 29 102 47 50 18 97 36 105 41 8 5 16
9 18 9 1 1 7 -11 13 -26z m1971 20 c-6 -2 -9 -9 -6 -14 3 -6 12 -5 22 3 15 12
16 11 4 -4 -8 -10 -24 -20 -35 -24 -12 -3 -107 -40 -211 -81 -104 -40 -190
-72 -191 -71 -2 2 -5 12 -7 23 -3 17 21 28 182 88 102 38 196 72 210 77 27 9
53 12 32 3z m-1605 -35 c-3 -8 -6 -5 -6 6 -1 11 2 17 5 13 3 -3 4 -12 1 -19z
m113 1 c0 -5 -4 -9 -10 -9 -5 0 -10 7 -10 16 0 8 5 12 10 9 6 -3 10 -10 10
-16z m3355 -9 c4 -6 12 -7 18 -4 8 5 9 4 2 -4 -12 -13 -58 -4 -49 9 7 12 21
11 29 -1z m-3135 -16 c0 -8 -5 -12 -10 -9 -6 4 -8 11 -5 16 9 14 15 11 15 -7z
m1340 6 c-8 -5 -22 -9 -30 -9 -10 0 -8 3 5 9 27 12 43 12 25 0z m1750 -15 c0
-9 -12 -20 -27 -26 -15 -6 -34 -16 -42 -22 -8 -7 -21 -12 -30 -12 -26 0 -111
-39 -111 -51 0 -19 -60 -11 -66 9 -8 24 -8 24 72 52 38 14 78 29 89 34 67 31
115 38 115 16z m-3320 -4 c0 -6 -4 -13 -10 -16 -5 -3 -10 1 -10 9 0 9 5 16 10
16 6 0 10 -4 10 -9z m737 -13 c-3 -8 -6 -5 -6 6 -1 11 2 17 5 13 3 -3 4 -12 1
-19z m386 3 c4 -15 -4 -23 -39 -36 -24 -9 -48 -14 -54 -10 -22 13 -8 34 33 48
55 20 54 20 60 -2z m387 8 c-11 -7 -4 -8 25 -3 22 4 37 3 33 0 -3 -4 -12 -8
-20 -10 -7 -1 -17 -4 -23 -8 -5 -3 -75 -32 -154 -63 -288 -113 -281 -111 -281
-75 0 12 44 32 175 79 96 34 180 59 187 55 7 -4 8 -3 4 4 -9 16 7 15 22 0 6
-6 15 -8 19 -3 5 4 2 10 -6 13 -11 4 -11 6 0 13 20 12 37 11 19 -2z m441 -12
c-13 -13 -26 -3 -16 12 3 6 11 8 17 5 6 -4 6 -10 -1 -17z m-1791 -2 c0 -8 -4
-15 -10 -15 -5 0 -10 7 -10 15 0 8 5 15 10 15 6 0 10 -7 10 -15z m100 0 c0 -8
-4 -15 -10 -15 -5 0 -10 7 -10 15 0 8 5 15 10 15 6 0 10 -7 10 -15z m1540 -6
c0 -5 -4 -9 -10 -9 -5 0 -10 7 -10 16 0 8 5 12 10 9 6 -3 10 -10 10 -16z
m-1860 -5 c0 -8 -4 -12 -10 -9 -5 3 -10 10 -10 16 0 5 5 9 10 9 6 0 10 -7 10
-16z m2490 -9 c0 -8 -4 -15 -10 -15 -5 0 -10 7 -10 15 0 8 5 15 10 15 6 0 10
-7 10 -15z m210 -6 c0 -5 -4 -9 -10 -9 -5 0 -10 7 -10 16 0 8 5 12 10 9 6 -3
10 -10 10 -16z m-2960 -15 c0 -14 -55 -44 -80 -44 -25 0 -3 34 30 46 47 17 50
17 50 -2z m1137 -6 c-3 -8 -6 -5 -6 6 -1 11 2 17 5 13 3 -3 4 -12 1 -19z m743
2 c-8 -5 -22 -9 -30 -9 -10 0 -8 3 5 9 27 12 43 12 25 0z m460 -5 c0 -8 -4
-15 -10 -15 -5 0 -10 7 -10 15 0 8 5 15 10 15 6 0 10 -7 10 -15z m-1260 -5 c0
-5 -2 -10 -4 -10 -3 0 -8 5 -11 10 -3 6 -1 10 4 10 6 0 11 -4 11 -10z m170 0
c-8 -5 -22 -9 -30 -9 -10 0 -8 3 5 9 27 12 43 12 25 0z m833 -5 c0 -6 -7 -11
-16 -13 -12 -3 -15 1 -11 13 7 17 25 17 27 0z m-271 -8 c-12 -7 -20 -16 -16
-19 3 -4 17 0 30 8 13 9 31 14 41 11 16 -4 16 -5 -2 -6 -11 -1 -29 -8 -39 -16
-11 -9 -30 -12 -45 -9 -16 3 -21 2 -14 -3 8 -5 -2 -14 -30 -25 -186 -74 -301
-118 -303 -115 -1 1 -4 11 -6 21 -3 21 -13 17 252 115 135 50 175 62 132 38z
m378 4 c0 -12 -20 -25 -27 -18 -7 7 6 27 18 27 5 0 9 -4 9 -9z m-2310 -24 c0
-14 -60 -47 -85 -47 -29 0 -14 28 23 43 46 20 62 21 62 4z m135 3 c7 -11 -30
-36 -67 -45 -43 -11 -35 20 10 38 45 19 49 20 57 7z m1150 -10 c-8 -13 8 -13
22 1 7 7 13 8 17 0 8 -12 -38 -26 -53 -16 -16 9 -13 25 5 25 8 0 12 -4 9 -10z
m-865 -16 c0 -8 -5 -12 -10 -9 -6 4 -8 11 -5 16 9 14 15 11 15 -7z m1003 0
c-7 -3 -9 -12 -6 -20 3 -8 0 -14 -6 -14 -12 0 -15 23 -4 33 3 4 11 7 17 6 7 0
6 -2 -1 -5z m542 -23 c-33 -16 -64 -26 -69 -23 -5 3 -6 0 -2 -6 5 -9 17 -7 44
4 20 9 46 18 57 20 l20 5 -20 -11 c-50 -26 -421 -168 -427 -163 -20 12 -6 40
25 50 17 6 70 25 117 42 296 111 366 133 255 82z m875 19 c0 -5 -4 -10 -10
-10 -5 0 -10 5 -10 10 0 6 5 10 10 10 6 0 10 -4 10 -10z m860 0 c0 -5 -4 -10
-10 -10 -5 0 -10 5 -10 10 0 6 5 10 10 10 6 0 10 -4 10 -10z m-2480 -10 c0 -5
-4 -10 -10 -10 -5 0 -10 5 -10 10 0 6 5 10 10 10 6 0 10 -4 10 -10z m240 0
c-8 -5 -19 -10 -25 -10 -5 0 -3 5 5 10 8 5 20 10 25 10 6 0 3 -5 -5 -10z
m1690 0 c0 -5 -4 -10 -10 -10 -5 0 -10 5 -10 10 0 6 5 10 10 10 6 0 10 -4 10
-10z m-3143 -22 c-3 -8 -6 -5 -6 6 -1 11 2 17 5 13 3 -3 4 -12 1 -19z m141 4
c2 -7 -7 -16 -20 -21 -13 -5 -44 -18 -68 -29 -25 -11 -58 -24 -75 -30 -16 -5
-38 -13 -47 -17 -14 -5 -18 -2 -18 12 0 15 19 27 83 52 45 18 91 37 102 41 24
10 37 8 43 -8z m1355 -9 c-7 -2 -13 -13 -13 -23 0 -24 -60 -47 -72 -28 -18 29
-9 35 22 16 17 -11 22 -10 30 2 5 8 7 17 4 21 -4 8 13 17 31 17 6 0 4 -2 -2
-5z m3589 -18 c20 -14 48 -25 62 -25 19 0 26 -5 26 -20 0 -17 -7 -20 -46 -20
-36 0 -45 3 -41 14 4 9 -7 22 -29 35 -19 12 -32 26 -29 31 9 15 16 13 57 -15z
m-4512 0 c0 -8 -4 -15 -10 -15 -5 0 -10 7 -10 15 0 8 5 15 10 15 6 0 10 -7 10
-15z m4250 11 c0 -11 -19 -15 -25 -6 -3 5 1 10 9 10 9 0 16 -2 16 -4z m-3370
-16 c0 -5 -4 -10 -10 -10 -5 0 -10 5 -10 10 0 6 5 10 10 10 6 0 10 -4 10 -10z
m-1300 -16 c0 -15 -55 -44 -86 -44 -25 0 -11 23 27 42 43 21 59 22 59 2z
m2850 6 c0 -5 -2 -10 -4 -10 -3 0 -8 5 -11 10 -3 6 -1 10 4 10 6 0 11 -4 11
-10z m510 -5 c0 -8 -2 -15 -4 -15 -2 0 -6 7 -10 15 -3 8 -1 15 4 15 6 0 10 -7
10 -15z m-2891 -25 c13 0 15 -16 3 -24 -10 -6 -53 40 -44 48 3 4 12 0 18 -8 6
-9 16 -16 23 -16z m4251 20 c0 -5 -7 -10 -15 -10 -8 0 -15 5 -15 10 0 6 7 10
15 10 8 0 15 -4 15 -10z m-2928 -17 c-24 -8 -41 -17 -38 -20 3 -3 19 0 37 6
18 6 34 9 36 7 3 -3 -129 -57 -354 -145 l-53 -21 0 23 c0 21 18 30 193 95 105
39 199 71 207 71 8 0 -4 -7 -28 -16z m-1272 3 c0 -2 -7 -7 -16 -10 -8 -3 -12
-2 -9 4 6 10 25 14 25 6z m2436 -23 c-10 -10 -19 5 -10 18 6 11 8 11 12 0 2
-7 1 -15 -2 -18z m-1586 -8 c0 -7 -21 -20 -47 -29 -57 -20 -53 -20 -53 3 0 14
12 24 43 34 45 15 57 14 57 -8z m2100 10 c0 -8 -4 -15 -9 -15 -13 0 -22 16
-14 24 11 11 23 6 23 -9z m100 6 c0 -6 -4 -13 -10 -16 -5 -3 -10 1 -10 9 0 9
5 16 10 16 6 0 10 -4 10 -9z m1205 -1 c3 -5 -3 -10 -15 -10 -12 0 -18 5 -15
10 3 6 10 10 15 10 5 0 12 -4 15 -10z m-4898 -17 c4 -11 -87 -54 -99 -47 -18
11 -6 26 35 44 44 20 58 21 64 3z m357 -4 c-3 -5 -10 -7 -15 -3 -5 3 -7 10 -3
15 3 5 10 7 15 3 5 -3 7 -10 3 -15z m-224 -8 c0 -14 -13 -23 -45 -34 -43 -15
-45 -15 -45 3 0 16 23 29 88 49 1 1 2 -8 2 -18z m310 4 c0 -8 -4 -15 -9 -15
-13 0 -22 16 -14 24 11 11 23 6 23 -9z m770 -9 c0 -3 -4 -8 -10 -11 -5 -3 -10
-1 -10 4 0 6 5 11 10 11 6 0 10 -2 10 -4z m2284 -11 c-4 -8 -8 -15 -10 -15 -2
0 -4 7 -4 15 0 8 4 15 10 15 5 0 7 -7 4 -15z m106 0 c0 -8 -4 -15 -9 -15 -13
0 -22 16 -14 24 11 11 23 6 23 -9z m1343 8 c-7 -2 -19 -2 -25 0 -7 3 -2 5 12
5 14 0 19 -2 13 -5z m-4933 -40 c0 -19 -85 -61 -98 -49 -12 12 14 39 49 52 46
17 49 17 49 -3z m1494 1 c3 -9 6 -17 6 -19 0 -2 -21 -10 -47 -19 -37 -13 -48
-13 -55 -4 -13 22 -10 26 35 41 54 20 54 20 61 1z m3496 6 c0 -5 -7 -10 -15
-10 -8 0 -15 5 -15 10 0 6 7 10 15 10 8 0 15 -4 15 -10z m-4860 -14 c0 -19
-27 -28 -33 -11 -7 15 1 25 20 25 7 0 13 -6 13 -14z m-60 -20 c0 -8 -4 -17 -9
-21 -12 -7 -24 12 -16 25 9 15 25 12 25 -4z m4970 4 c0 -5 -7 -10 -15 -10 -8
0 -15 5 -15 10 0 6 7 10 15 10 8 0 15 -4 15 -10z m-5053 -112 c-50 -23 -69
-23 -65 -1 2 10 21 24 43 32 46 17 50 19 43 26 -3 3 -24 -2 -48 -10 -24 -8
-45 -13 -48 -11 -12 13 11 35 50 48 l43 15 10 -41 11 -41 -39 -17z m158 72
c-7 -11 -25 -20 -72 -34 -43 -14 -26 24 20 43 41 18 66 14 52 -9z m1765 5
c-14 -8 -32 -14 -41 -15 -18 0 -48 -30 -31 -30 6 0 12 4 14 9 2 5 21 12 43 15
22 3 33 3 25 0 -69 -30 -342 -134 -350 -134 -5 0 -10 8 -10 18 0 14 20 26 83
49 45 17 125 47 177 67 101 37 131 44 90 21z m3185 5 c3 -5 -3 -10 -15 -10
-12 0 -18 5 -15 10 3 6 10 10 15 10 5 0 12 -4 15 -10z m-3585 -17 c0 -19 -75
-57 -91 -47 -20 12 -7 33 29 47 49 21 62 21 62 0z m2050 2 c0 -8 -4 -15 -10
-15 -5 0 -10 7 -10 15 0 8 5 15 10 15 6 0 10 -7 10 -15z m1585 -16 c10 -15 -1
-23 -20 -15 -9 3 -13 10 -10 16 8 13 22 13 30 -1z m1736 -27 c123 -40 189 -99
189 -167 0 -51 -50 -99 -128 -122 -64 -19 -208 -21 -282 -5 -25 5 -76 7 -115
3 -57 -5 -73 -3 -86 10 -9 9 -22 18 -28 20 -7 3 -14 16 -15 31 -2 19 1 25 11
21 9 -4 11 0 7 11 -5 13 -2 15 12 9 16 -6 17 -5 6 9 -7 9 -13 35 -14 58 -1 66
53 111 162 137 71 16 208 9 281 -15z m-6723 6 c-5 -14 -41 -34 -70 -40 -31 -6
-23 17 12 34 41 21 63 23 58 6z m5278 -6 c47 -20 84 -49 102 -80 15 -26 8 -57
-13 -66 -8 -3 -15 -13 -15 -22 0 -10 -5 -14 -15 -10 -8 3 -15 2 -15 -2 0 -17
-70 -32 -144 -32 -55 0 -75 3 -70 11 5 8 -3 10 -24 7 -21 -3 -29 -1 -25 8 3 9
-5 10 -30 4 -40 -8 -72 4 -48 19 10 6 10 10 1 16 -6 4 -15 18 -21 32 -12 33
17 99 36 83 10 -9 12 -7 9 7 -8 28 37 41 141 41 63 1 102 -4 131 -16z m-5396
-53 c0 -8 -75 -39 -95 -39 -32 0 -12 29 33 47 44 19 61 16 62 -8z m1869 22
c16 -10 22 -8 -188 -91 -108 -43 -135 -50 -142 -39 -5 8 -9 17 -9 20 0 4 53
26 118 49 64 23 133 49 152 56 42 16 51 16 69 5z m-369 -64 c0 -18 -10 -26
-45 -40 -41 -14 -47 -15 -52 -1 -3 8 -2 18 2 22 5 5 79 38 93 41 1 1 2 -9 2
-22z m350 -11 c0 -2 -9 -6 -20 -9 -11 -3 -18 -1 -14 4 5 9 34 13 34 5z m20
-16 c-8 -5 -19 -10 -25 -10 -5 0 -3 5 5 10 8 5 20 10 25 10 6 0 3 -5 -5 -10z
m-95 -10 c-3 -5 2 -10 11 -10 10 0 15 -2 12 -5 -3 -3 -20 -2 -38 2 -29 5 -31
7 -15 14 28 11 37 11 30 -1z m2752 -470 c498 -331 578 -388 578 -409 0 -26 10
-21 -585 -273 -801 -338 -828 -348 -842 -330 -11 13 -10 15 5 9 11 -4 16 -3
12 3 -3 6 -1 10 6 10 7 0 10 2 8 5 -3 2 -34 -6 -69 -19 -84 -30 -160 -44 -142
-25 6 7 12 31 12 54 0 22 4 56 10 75 10 39 21 137 20 188 0 45 22 50 73 18 37
-24 39 -24 17 -4 -14 13 -41 36 -60 52 -22 17 -27 26 -15 21 16 -5 17 -4 8 6
-9 9 -9 17 -1 32 7 15 7 22 -3 29 -10 7 -3 8 20 4 19 -3 66 -24 105 -47 39
-22 66 -35 60 -29 -8 8 -8 26 -2 58 24 124 26 143 11 138 -8 -3 -11 -1 -8 4 9
15 -9 12 -67 -10 -29 -11 -61 -20 -71 -20 -10 0 -25 -7 -33 -15 -9 -8 -20 -15
-27 -15 -6 0 -2 6 9 14 18 14 18 16 -16 46 l-35 31 46 -25 c25 -14 52 -26 60
-26 27 0 169 64 166 74 -2 6 -26 27 -54 46 -30 20 -49 40 -46 47 3 7 0 13 -6
13 -6 0 -11 -4 -11 -8 0 -9 -62 -34 -69 -27 -2 3 1 5 8 5 7 0 9 5 6 10 -3 6 1
10 9 10 24 0 126 48 126 59 0 5 -22 26 -50 46 -34 25 -47 41 -43 52 5 12 1 14
-18 9 -17 -4 -14 -1 9 11 18 9 31 20 30 24 -2 5 -25 25 -53 46 -27 21 -51 46
-51 55 -1 10 1 17 5 16 3 -1 22 6 42 16 28 14 35 23 33 43 -2 21 0 22 14 11
27 -20 28 -22 10 -15 -19 7 -25 -8 -7 -18 5 -4 18 0 27 8 25 22 52 15 125 -31
37 -23 73 -42 81 -42 15 0 175 67 188 79 4 3 -29 31 -73 61 -43 30 -102 72
-131 93 -28 20 -58 37 -67 37 -28 0 -236 -82 -248 -98 -8 -9 -13 -11 -13 -4 0
17 33 35 138 78 51 21 91 42 89 48 -2 5 -25 25 -51 43 -27 18 -44 33 -39 33
12 0 113 -69 113 -78 0 -4 14 -8 31 -9 24 -2 29 0 20 11 -6 7 -8 16 -4 20 11
11 12 65 2 72 -5 3 -9 10 -9 16 0 6 6 6 15 -2 9 -7 18 -11 20 -8 6 6 -33 48
-45 48 -6 0 -10 4 -10 10 0 12 -7 16 707 -460z m-3007 427 c0 -6 -82 -47 -96
-47 -2 0 -4 10 -4 23 0 18 9 26 43 39 40 14 56 10 57 -15z m205 10 c0 -7 -90
-47 -199 -90 -193 -76 -215 -80 -216 -46 0 10 373 144 393 142 12 -2 16 1 11
10 -4 7 -3 9 2 4 5 -5 9 -14 9 -20z m35 3 c0 -5 -5 -10 -11 -10 -5 0 -7 5 -4
10 3 6 8 10 11 10 2 0 4 -4 4 -10z m1858 -31 c-3 -8 -7 -3 -11 10 -4 17 -3 21
5 13 5 -5 8 -16 6 -23z m1447 2 c7 -12 -12 -24 -25 -16 -11 7 -4 25 10 25 5 0
11 -4 15 -9z m-3300 -16 c-105 -48 -144 -63 -175 -69 -53 -10 -18 9 92 49 95
34 136 44 83 20z m3699 9 c23 -9 20 -24 -4 -24 -11 0 -20 7 -20 15 0 17 2 18
24 9z m-1834 -24 c-8 -5 -19 -10 -25 -10 -5 0 -3 5 5 10 8 5 20 10 25 10 6 0
3 -5 -5 -10z m1380 0 c0 -5 -7 -10 -15 -10 -8 0 -15 5 -15 10 0 6 7 10 15 10
8 0 15 -4 15 -10z m-65 -20 c3 -5 -1 -10 -9 -10 -9 0 -16 5 -16 10 0 6 4 10 9
10 6 0 13 -4 16 -10z m578 4 c11 -11 -3 -24 -18 -18 -8 4 -12 10 -9 15 6 11
18 12 27 3z m-664 -20 c25 -5 31 -11 29 -28 -2 -17 -11 -22 -44 -24 -52 -4
-80 22 -49 44 22 16 22 16 64 8z m1531 -25 c0 -16 -31 -22 -43 -10 -9 9 -9 14
2 20 16 10 41 4 41 -10z m-4731 8 c-14 -12 -89 -35 -89 -28 0 4 15 13 33 19
32 10 64 15 56 9z m3926 -7 c-3 -5 -13 -10 -21 -10 -8 0 -14 5 -14 10 0 6 9
10 21 10 11 0 17 -4 14 -10z m-4046 -13 c-16 -12 -89 -34 -89 -26 0 5 1 9 3 9
1 0 20 7 42 14 34 12 58 14 44 3z m4783 -3 c14 -4 15 -8 3 -31 -19 -36 -31
-41 -76 -33 -21 4 -39 3 -39 -1 0 -5 -9 -9 -20 -9 -11 0 -20 7 -20 15 0 8 5
15 11 15 5 0 8 4 5 8 -6 10 4 24 29 39 18 11 62 10 107 -3z m-5602 -8 c0 -8
-7 -16 -14 -19 -11 -4 -13 -16 -10 -39 4 -20 -2 -57 -14 -93 l-20 -59 21 -15
c45 -31 77 -73 77 -101 0 -16 5 -32 12 -36 7 -4 8 -3 4 4 -4 7 -2 12 3 12 6 0
11 -4 11 -10 0 -20 -213 -110 -227 -96 -4 4 -2 16 5 26 7 11 12 37 12 59 0 21
7 62 16 90 l17 51 -27 21 c-45 35 -57 50 -63 79 -3 17 -13 30 -26 34 -30 7
-19 15 91 62 105 46 132 52 132 30z m4920 -6 c0 -5 -9 -10 -20 -10 -11 0 -20
5 -20 10 0 6 9 10 20 10 11 0 20 -4 20 -10z m-873 -6 c-3 -3 -12 -4 -19 -1 -8
3 -5 6 6 6 11 1 17 -2 13 -5z m133 -4 c0 -5 -4 -10 -10 -10 -5 0 -10 5 -10 10
0 6 5 10 10 10 6 0 10 -4 10 -10z m-3277 -43 c-3 -5 -9 -3 -14 4 -7 11 -9 11
-9 -1 0 -13 -1 -13 -10 0 -7 11 -5 17 8 21 18 7 34 -9 25 -24z m3087 29 c0
-11 -19 -15 -25 -6 -3 5 1 10 9 10 9 0 16 -2 16 -4z m971 -9 c-1 -12 -15 -9
-19 4 -3 6 1 10 8 8 6 -3 11 -8 11 -12z m-721 -7 c0 -5 -7 -10 -15 -10 -8 0
-15 5 -15 10 0 6 7 10 15 10 8 0 15 -4 15 -10z m-315 -10 c3 -5 -1 -10 -10
-10 -9 0 -13 5 -10 10 3 6 8 10 10 10 2 0 7 -4 10 -10z m1095 -20 c0 -5 -7
-10 -15 -10 -8 0 -15 5 -15 10 0 6 7 10 15 10 8 0 15 -4 15 -10z m410 0 c0 -5
-9 -10 -20 -10 -11 0 -20 5 -20 10 0 6 9 10 20 10 11 0 20 -4 20 -10z m-1560
-10 c0 -5 -4 -10 -9 -10 -6 0 -13 5 -16 10 -3 6 1 10 9 10 9 0 16 -4 16 -10z
m420 0 c0 -5 -4 -10 -9 -10 -6 0 -13 5 -16 10 -3 6 1 10 9 10 9 0 16 -4 16
-10z m1070 -10 c11 -7 9 -11 -12 -19 -14 -5 -29 -15 -33 -20 -9 -15 -40 -14
-54 3 -20 24 26 42 57 23 8 -5 12 -3 12 7 0 18 8 20 30 6z m-1550 -10 c0 -5
-7 -10 -16 -10 -8 0 -12 5 -9 10 3 6 10 10 16 10 5 0 9 -4 9 -10z m1265 0 c3
-5 -3 -10 -15 -10 -12 0 -18 5 -15 10 3 6 10 10 15 10 5 0 12 -4 15 -10z
m-730 -10 c3 -5 -1 -10 -9 -10 -9 0 -16 5 -16 10 0 6 4 10 9 10 6 0 13 -4 16
-10z m-598 -16 c-3 -3 -12 -4 -19 -1 -8 3 -5 6 6 6 11 1 17 -2 13 -5z m1413
-14 c28 -5 49 -5 57 2 7 5 18 6 24 2 9 -5 7 -11 -7 -21 -15 -11 -17 -17 -6
-33 16 -26 15 -30 -3 -30 -8 0 -15 5 -15 10 0 6 -15 10 -33 10 -35 0 -77 23
-65 36 4 4 3 13 -3 21 -13 15 -10 15 51 3z m-3950 -10 c-8 -5 -22 -9 -30 -9
-10 0 -8 3 5 9 27 12 43 12 25 0z m1673 -4 c8 3 18 1 22 -5 4 -7 0 -8 -11 -4
-12 5 -15 3 -9 -6 6 -10 3 -11 -13 -2 -12 6 -24 17 -28 24 -6 9 -4 9 8 -1 8
-7 22 -10 31 -6z m807 4 c0 -5 -4 -10 -10 -10 -5 0 -10 5 -10 10 0 6 5 10 10
10 6 0 10 -4 10 -10z m710 0 c0 -5 -4 -10 -9 -10 -6 0 -13 5 -16 10 -3 6 1 10
9 10 9 0 16 -4 16 -10z m-3725 -35 c-49 -23 -86 -32 -71 -18 11 11 88 41 106
41 8 0 -7 -10 -35 -23z m3780 5 c3 -5 -1 -10 -9 -10 -9 0 -16 5 -16 10 0 6 4
10 9 10 6 0 13 -4 16 -10z m-3899 -45 c9 -50 -1 -54 -14 -5 -5 22 -6 40 -1 40
4 0 11 -16 15 -35z m3954 5 c0 -5 -4 -10 -9 -10 -6 0 -13 5 -16 10 -3 6 1 10
9 10 9 0 16 -4 16 -10z m790 -20 c0 -5 -9 -10 -20 -10 -11 0 -20 5 -20 10 0 6
9 10 20 10 11 0 20 -4 20 -10z m-735 -10 c3 -5 -1 -10 -10 -10 -9 0 -13 5 -10
10 3 6 8 10 10 10 2 0 7 -4 10 -10z m780 -20 c3 -5 -3 -10 -15 -10 -12 0 -18
5 -15 10 3 6 10 10 15 10 5 0 12 -4 15 -10z m1379 -20 c215 -67 262 -215 94
-291 -46 -21 -68 -24 -168 -24 -101 0 -126 4 -205 30 -95 32 -133 61 -161 124
-27 59 3 115 83 155 77 39 241 41 357 6z m-2104 0 c0 -5 -4 -10 -9 -10 -6 0
-13 5 -16 10 -3 6 1 10 9 10 9 0 16 -4 16 -10z m-4034 -14 c10 -11 11 -17 3
-22 -6 -3 -15 0 -20 7 -18 29 -7 39 17 15z m4814 -6 c0 -5 -7 -10 -15 -10 -8
0 -15 5 -15 10 0 6 7 10 15 10 8 0 15 -4 15 -10z m-723 -16 c-3 -3 -12 -4 -19
-1 -8 3 -5 6 6 6 11 1 17 -2 13 -5z m778 -14 c3 -5 -3 -10 -15 -10 -12 0 -18
5 -15 10 3 6 10 10 15 10 5 0 12 -4 15 -10z m-715 -20 c0 -5 -7 -10 -15 -10
-8 0 -15 5 -15 10 0 6 7 10 15 10 8 0 15 -4 15 -10z m770 -20 c0 -5 -7 -10
-15 -10 -8 0 -15 5 -15 10 0 6 7 10 15 10 8 0 15 -4 15 -10z m-723 -26 c-9 -9
-28 6 -21 18 4 6 10 6 17 -1 6 -6 8 -13 4 -17z m778 -4 c3 -5 -3 -10 -15 -10
-12 0 -18 5 -15 10 3 6 10 10 15 10 5 0 12 -4 15 -10z m-5510 -10 c-3 -5 -12
-10 -18 -10 -7 0 -6 4 3 10 19 12 23 12 15 0z m2824 -4 c-2 -2 -18 -7 -34 -10
l-30 -6 30 14 c26 12 46 14 34 2z m1971 -6 c0 -5 -7 -10 -15 -10 -8 0 -15 5
-15 10 0 6 7 10 15 10 8 0 15 -4 15 -10z m-4848 -16 c-12 -8 -20 -20 -17 -25
4 -5 1 -9 -4 -9 -6 0 -11 5 -11 11 0 10 -10 8 -60 -9 -8 -3 1 7 20 21 19 14
48 26 65 26 l29 1 -22 -16z m5622 -5 c-7 -11 -34 -12 -34 -1 0 14 11 21 26 15
8 -3 11 -9 8 -14z m-362 -18 c73 -28 117 -59 145 -100 48 -71 18 -138 -79
-182 -46 -21 -68 -24 -173 -24 -108 0 -128 3 -199 29 -55 20 -92 42 -122 71
-39 36 -44 47 -44 84 0 37 6 49 43 85 54 55 98 66 252 62 95 -2 132 -8 177
-25z m418 -11 c0 -5 -9 -10 -20 -10 -11 0 -20 5 -20 10 0 6 9 10 20 10 11 0
20 -4 20 -10z m-2864 -57 c24 -16 44 -35 44 -43 0 -10 -3 -11 -8 -4 -4 6 -27
25 -51 42 -54 39 -44 42 15 5z m2924 17 c0 -5 -9 -10 -20 -10 -11 0 -20 5 -20
10 0 6 9 10 20 10 11 0 20 -4 20 -10z m55 -29 c3 -5 1 -12 -4 -15 -12 -8 -41
3 -41 15 0 12 37 12 45 0z m-5788 -21 c1 -11 -2 -20 -6 -20 -5 0 -11 9 -14 20
-3 12 0 20 7 20 6 0 12 -9 13 -20z m6048 9 c22 -6 55 -13 72 -16 18 -3 31 -9
28 -13 -3 -5 7 -8 22 -7 19 1 28 -3 28 -13 0 -8 3 -17 6 -20 13 -10 39 -70 39
-88 0 -22 -33 -55 -45 -45 -4 5 -5 2 -1 -4 4 -8 1 -13 -7 -13 -8 0 -14 -8 -13
-17 0 -10 -4 -17 -9 -16 -6 1 -40 -2 -75 -6 -36 -5 -90 -4 -120 1 -30 5 -66 8
-80 8 -20 0 -22 2 -10 11 12 8 8 9 -13 4 -19 -4 -26 -2 -22 5 3 5 -2 10 -12
10 -22 0 -81 62 -89 94 -6 27 -1 39 36 83 19 22 35 30 60 30 19 0 36 5 38 11
5 15 112 15 167 1z m275 1 c0 -5 -9 -10 -20 -10 -11 0 -20 5 -20 10 0 6 9 10
20 10 11 0 20 -4 20 -10z m-62 -27 c2 -8 -5 -13 -17 -13 -12 0 -21 6 -21 16 0
18 31 15 38 -3z m-6668 -7 c0 -3 -4 -8 -10 -11 -5 -3 -10 -1 -10 4 0 6 5 11
10 11 6 0 10 -2 10 -4z m3221 -25 c-24 -10 -50 -26 -57 -36 -15 -20 -19 -9 -6
12 9 14 70 42 92 42 8 0 -5 -8 -29 -18z m-3341 -21 c0 -5 -5 -10 -11 -10 -5 0
-7 5 -4 10 3 6 8 10 11 10 2 0 4 -4 4 -10z m540 0 c0 -5 -2 -10 -4 -10 -3 0
-8 5 -11 10 -3 6 -1 10 4 10 6 0 11 -4 11 -10z m-508 -105 c9 -20 9 -20 -6 -1
-9 11 -16 27 -15 35 0 14 1 14 6 1 3 -8 10 -24 15 -35z m6288 -40 c0 -16 -35
-21 -44 -6 -8 12 4 21 26 21 10 0 18 -7 18 -15z m-65 -25 c3 -5 -3 -10 -14
-10 -12 0 -21 5 -21 10 0 6 6 10 14 10 8 0 18 -4 21 -10z m-6142 -60 c20 -22
20 -23 2 -10 -28 21 -35 32 -34 55 l1 20 5 -20 c3 -11 15 -31 26 -45z m6082
39 c10 -15 -1 -23 -20 -15 -9 3 -13 10 -10 16 8 13 22 13 30 -1z m565 -4 c0
-8 -9 -15 -20 -15 -11 0 -20 7 -20 15 0 8 9 15 20 15 11 0 20 -7 20 -15z
m-620 -25 c0 -5 -9 -10 -20 -10 -11 0 -20 5 -20 10 0 6 9 10 20 10 11 0 20 -4
20 -10z m680 -10 c0 -5 -9 -10 -20 -10 -11 0 -20 5 -20 10 0 6 9 10 20 10 11
0 20 -4 20 -10z m-2175 -9 c-16 -15 -85 -41 -85 -32 0 5 17 16 38 24 43 18 60
21 47 8z m1427 -13 c-9 -9 -15 -9 -24 0 -9 9 -7 12 12 12 19 0 21 -3 12 -12z
m793 -9 c10 -15 -1 -23 -20 -15 -9 3 -13 10 -10 16 8 13 22 13 30 -1z m-850
-9 c3 -5 -3 -10 -14 -10 -12 0 -21 5 -21 10 0 6 6 10 14 10 8 0 18 -4 21 -10z
m-55 -30 c0 -5 -6 -10 -14 -10 -8 0 -18 5 -21 10 -3 6 3 10 14 10 12 0 21 -4
21 -10z m970 0 c0 -5 -9 -10 -20 -10 -11 0 -20 5 -20 10 0 6 9 10 20 10 11 0
20 -4 20 -10z m-2443 -7 c-14 -13 -227 -100 -227 -92 0 11 15 20 110 60 78 34
133 49 117 32z m1408 -13 c3 -5 -3 -10 -15 -10 -12 0 -18 5 -15 10 3 6 10 10
15 10 5 0 12 -4 15 -10z m1095 -20 c0 -5 -9 -10 -20 -10 -11 0 -20 5 -20 10 0
6 9 10 20 10 11 0 20 -4 20 -10z m-1150 -10 c0 -5 -6 -10 -14 -10 -8 0 -18 5
-21 10 -3 6 3 10 14 10 12 0 21 -4 21 -10z m260 0 c0 -6 -18 -17 -39 -26 -27
-10 -38 -20 -34 -30 6 -15 -8 -17 -56 -8 -25 5 -31 12 -31 31 0 22 3 24 29 18
19 -4 40 -1 58 9 32 17 73 21 73 6z m1285 -16 c244 -86 271 -261 49 -319 -231
-60 -541 70 -509 215 10 47 82 105 145 118 77 15 253 8 315 -14z m-1610 -4 c3
-5 -3 -10 -15 -10 -12 0 -18 5 -15 10 3 6 10 10 15 10 5 0 12 -4 15 -10z m-55
-30 c0 -5 -9 -10 -20 -10 -11 0 -20 5 -20 10 0 6 9 10 20 10 11 0 20 -4 20
-10z m-68 -32 c-12 -12 -35 -1 -27 12 3 5 13 6 21 3 10 -4 12 -9 6 -15z m-57
-18 c3 -5 -3 -10 -14 -10 -12 0 -21 5 -21 10 0 6 6 10 14 10 8 0 18 -4 21 -10z
m-5195 -20 c0 -5 -4 -10 -10 -10 -5 0 -10 5 -10 10 0 6 5 10 10 10 6 0 10 -4
10 -10z m5132 -12 c-9 -9 -15 -9 -24 0 -9 9 -7 12 12 12 19 0 21 -3 12 -12z
m-57 -18 c3 -5 -3 -10 -15 -10 -12 0 -18 5 -15 10 3 6 10 10 15 10 5 0 12 -4
15 -10z m-65 -30 c0 -5 -7 -10 -15 -10 -8 0 -15 5 -15 10 0 6 7 10 15 10 8 0
15 -4 15 -10z m-63 -36 c-9 -9 -28 6 -21 18 4 6 10 6 17 -1 6 -6 8 -13 4 -17z
m-58 5 c24 -9 31 -16 28 -30 -3 -10 2 -20 11 -24 12 -4 13 -8 4 -17 -9 -9 -15
-9 -24 0 -21 21 -85 15 -102 -10 -11 -16 -27 -22 -53 -23 -21 0 -44 -4 -50 -8
-7 -5 -21 -4 -30 2 -17 9 -17 10 0 16 9 4 17 15 17 25 0 22 19 30 72 30 31 0
41 4 45 19 4 17 15 24 44 30 3 0 21 -4 38 -10z m-5058 -25 c32 -38 -43 -66
-79 -30 -13 12 -13 18 -2 30 16 21 64 20 81 0z m-1141 -33 c-20 -38 -12 -88
21 -128 l32 -38 -37 37 c-28 29 -36 46 -36 74 0 33 14 74 26 74 2 0 0 -9 -6
-19z m4580 -11 c-8 -5 -19 -10 -25 -10 -5 0 -3 5 5 10 8 5 20 10 25 10 6 0 3
-5 -5 -10z m-60 -25 c-14 -8 -29 -14 -35 -14 -5 0 1 6 15 14 14 8 30 14 35 14
6 0 -1 -6 -15 -14z m1785 -5 c3 -5 -1 -10 -9 -10 -9 0 -16 5 -16 10 0 6 4 10
9 10 6 0 13 -4 16 -10z m-1930 -9 c3 -6 -4 -15 -16 -21 -15 -8 -19 -9 -15 -1
4 6 1 11 -6 11 -9 0 -9 3 2 10 19 12 27 12 35 1z m40 -31 c-33 -16 -64 -29
-70 -29 -13 1 107 57 120 57 6 0 -17 -13 -50 -28z m1535 10 c0 -5 -7 -10 -15
-10 -8 0 -15 5 -15 10 0 6 7 10 15 10 8 0 15 -4 15 -10z m415 -10 c3 -5 -3
-10 -14 -10 -12 0 -21 5 -21 10 0 6 6 10 14 10 8 0 18 -4 21 -10z m-3215 -20
c0 -5 -5 -12 -11 -16 -14 -8 -33 11 -25 25 7 11 36 4 36 -9z m2740 5 c0 -8 -6
-15 -14 -15 -17 0 -28 14 -19 24 12 12 33 6 33 -9z m822 -6 c191 -33 302 -163
222 -259 -54 -64 -161 -96 -293 -87 -145 9 -265 63 -315 141 -39 60 -35 90 22
146 43 44 53 49 117 59 119 19 140 19 247 0z m-867 -14 c0 -27 -62 -35 -72
-10 -8 21 14 36 47 33 17 -2 25 -9 25 -23z m-1535 -10 c-14 -8 -29 -14 -35
-14 -5 0 1 6 15 14 14 8 30 14 35 14 6 0 -1 -6 -15 -14z m1461 -20 c-1 -15
-24 -12 -29 3 -3 9 2 13 12 10 10 -1 17 -7 17 -13z m-5686 -33 c-3 -3 -11 0
-18 7 -9 10 -8 11 6 5 10 -3 15 -9 12 -12z m5625 8 c0 -5 -7 -10 -15 -10 -8 0
-15 5 -15 10 0 6 7 10 15 10 8 0 15 -4 15 -10z m-5200 -30 c0 -5 -7 -10 -15
-10 -8 0 -15 5 -15 10 0 6 7 10 15 10 8 0 15 -4 15 -10z m5132 -2 c-9 -9 -15
-9 -24 0 -9 9 -7 12 12 12 19 0 21 -3 12 -12z m-44 -16 c5 -17 -27 -27 -41
-13 -9 9 -8 14 3 21 18 11 32 8 38 -8z m-5038 -16 c0 -11 -19 -15 -25 -6 -3 5
1 10 9 10 9 0 16 -2 16 -4z m4970 -16 c0 -5 -7 -10 -15 -10 -8 0 -15 5 -15 10
0 6 7 10 15 10 8 0 15 -4 15 -10z m-4923 -26 c-3 -3 -12 -4 -19 -1 -8 3 -5 6
6 6 11 1 17 -2 13 -5z m4860 0 c-3 -3 -12 -4 -19 -1 -8 3 -5 6 6 6 11 1 17 -2
13 -5z m-4629 -40 c18 -7 39 -11 48 -7 10 4 15 1 13 -8 -1 -8 1 -26 5 -42 17
-60 -51 -107 -154 -107 -97 0 -179 42 -180 92 0 10 14 33 31 52 25 29 38 36
77 39 62 4 119 -2 160 -19z m4562 16 c0 -5 -4 -10 -10 -10 -5 0 -10 5 -10 10
0 6 5 10 10 10 6 0 10 -4 10 -10z m-4433 -6 c-3 -3 -12 -4 -19 -1 -8 3 -5 6 6
6 11 1 17 -2 13 -5z m3843 -4 c0 -5 -5 -10 -11 -10 -5 0 -7 5 -4 10 3 6 8 10
11 10 2 0 4 -4 4 -10z m527 -16 c-3 -3 -12 -4 -19 -1 -8 3 -5 6 6 6 11 1 17
-2 13 -5z m-467 -24 c0 -5 -4 -10 -10 -10 -5 0 -10 5 -10 10 0 6 5 10 10 10 6
0 10 -4 10 -10z m410 0 c0 -5 -4 -10 -10 -10 -5 0 -10 5 -10 10 0 6 5 10 10
10 6 0 10 -4 10 -10z m-60 -30 c0 -5 -4 -10 -9 -10 -6 0 -13 5 -16 10 -3 6 1
10 9 10 9 0 16 -4 16 -10z m-293 -6 c-3 -3 -12 -4 -19 -1 -8 3 -5 6 6 6 11 1
17 -2 13 -5z m230 -20 c-3 -3 -12 -4 -19 -1 -8 3 -5 6 6 6 11 1 17 -2 13 -5z
m-110 -30 c12 -2 23 2 26 9 4 9 7 9 18 0 11 -11 10 -13 -3 -13 -10 0 -18 -10
-20 -22 -3 -21 -9 -23 -60 -25 l-56 -1 8 28 c5 16 6 31 2 34 -5 6 27 2 85 -10z
m-4472 -24 c3 -5 -3 -10 -15 -10 -12 0 -18 5 -15 10 3 6 10 10 15 10 5 0 12
-4 15 -10z m-65 -30 c0 -5 -7 -10 -15 -10 -8 0 -15 5 -15 10 0 6 7 10 15 10 8
0 15 -4 15 -10z m4580 -10 c0 -5 -4 -10 -10 -10 -5 0 -10 5 -10 10 0 6 5 10
10 10 6 0 10 -4 10 -10z m-180 -10 c0 -5 -4 -10 -10 -10 -5 0 -10 5 -10 10 0
6 5 10 10 10 6 0 10 -4 10 -10z m-4470 -10 c0 -15 -38 -50 -54 -50 -47 0 -87
40 -53 53 23 10 107 7 107 -3z m-453 -25 c6 -2 9 -13 6 -25 -4 -17 -11 -20
-29 -16 -13 4 -40 0 -60 -9 -40 -16 -74 -20 -74 -7 0 4 19 15 43 24 29 10 41
20 39 31 -2 14 3 16 30 11 18 -3 38 -7 45 -9z m5163 5 c0 -5 -4 -10 -10 -10
-5 0 -10 5 -10 10 0 6 5 10 10 10 6 0 10 -4 10 -10z m-365 -20 c3 -5 1 -10 -4
-10 -6 0 -11 5 -11 10 0 6 2 10 4 10 3 0 8 -4 11 -10z m-4475 -10 c0 -5 -7
-10 -15 -10 -8 0 -15 5 -15 10 0 6 7 10 15 10 8 0 15 -4 15 -10z m130 -4 c0
-11 -19 -15 -25 -6 -3 5 1 10 9 10 9 0 16 -2 16 -4z m4760 -6 c0 -5 -2 -10 -4
-10 -3 0 -8 5 -11 10 -3 6 -1 10 4 10 6 0 11 -4 11 -10z m-480 -10 c0 -5 -2
-10 -4 -10 -3 0 -8 5 -11 10 -3 6 -1 10 4 10 6 0 11 -4 11 -10z m-4480 -10 c0
-5 -7 -10 -15 -10 -8 0 -15 5 -15 10 0 6 7 10 15 10 8 0 15 -4 15 -10z m-76
-31 c-3 -5 -10 -7 -15 -3 -5 3 -7 10 -3 15 3 5 10 7 15 3 5 -3 7 -10 3 -15z
m323 15 c-3 -3 -12 -4 -19 -1 -8 3 -5 6 6 6 11 1 17 -2 13 -5z m4180 0 c-3 -3
-12 -4 -19 -1 -8 3 -5 6 6 6 11 1 17 -2 13 -5z m590 0 c-3 -3 -12 -4 -19 -1
-8 3 -5 6 6 6 11 1 17 -2 13 -5z m-2747 -70 c0 -8 -33 13 -65 41 -25 22 -23
22 18 -5 26 -17 47 -33 47 -36z m-2402 34 c-3 -7 -11 -13 -18 -13 -7 0 -15 6
-17 13 -3 7 4 12 17 12 13 0 20 -5 18 -12z m427 2 c3 -5 -1 -10 -10 -10 -9 0
-13 5 -10 10 3 6 8 10 10 10 2 0 7 -4 10 -10z m4782 -6 c-3 -3 -12 -4 -19 -1
-8 3 -5 6 6 6 11 1 17 -2 13 -5z m-5277 -24 c0 -5 -7 -10 -15 -10 -8 0 -15 5
-15 10 0 6 7 10 15 10 8 0 15 -4 15 -10z m560 -16 c0 -2 -7 -4 -15 -4 -8 0
-15 4 -15 10 0 5 7 7 15 4 8 -4 15 -8 15 -10z m4777 0 c-3 -3 -12 -4 -19 -1
-8 3 -5 6 6 6 11 1 17 -2 13 -5z m-5407 -14 c0 -5 -4 -10 -9 -10 -6 0 -13 5
-16 10 -3 6 1 10 9 10 9 0 16 -4 16 -10z m-65 -20 c3 -5 -3 -10 -15 -10 -12 0
-18 5 -15 10 3 6 10 10 15 10 5 0 12 -4 15 -10z m740 0 c3 -5 -1 -10 -9 -10
-9 0 -16 5 -16 10 0 6 4 10 9 10 6 0 13 -4 16 -10z m4785 0 c0 -5 -7 -10 -16
-10 -8 0 -12 5 -9 10 3 6 10 10 16 10 5 0 9 -4 9 -10z m-5575 -30 c0 -18 -43
-26 -57 -12 -16 16 2 33 30 30 16 -2 27 -9 27 -18z m840 -10 c3 -5 -1 -10 -9
-10 -9 0 -16 5 -16 10 0 6 4 10 9 10 6 0 13 -4 16 -10z m2335 0 c0 -5 -5 -10
-11 -10 -5 0 -7 5 -4 10 3 6 8 10 11 10 2 0 4 -4 4 -10z m2460 0 c0 -5 -7 -10
-15 -10 -8 0 -15 5 -15 10 0 6 7 10 15 10 8 0 15 -4 15 -10z m-5720 -20 c0 -5
-7 -10 -15 -10 -8 0 -15 5 -15 10 0 6 7 10 15 10 8 0 15 -4 15 -10z m-315 -28
c76 -25 143 -34 148 -19 2 7 10 7 23 2 18 -8 18 -9 -4 -13 -14 -2 -22 -9 -19
-17 3 -7 2 -16 -3 -21 -5 -5 -4 -27 2 -49 24 -91 -23 -161 -141 -207 -83 -32
-260 -32 -352 0 -111 38 -182 119 -165 188 16 63 114 132 219 154 65 14 224 4
292 -18z m240 8 c3 -5 -1 -10 -10 -10 -9 0 -13 5 -10 10 3 6 8 10 10 10 2 0 7
-4 10 -10z m1055 0 c0 -5 -7 -10 -15 -10 -8 0 -15 5 -15 10 0 6 7 10 15 10 8
0 15 -4 15 -10z m2340 0 c0 -5 -7 -10 -15 -10 -8 0 -15 5 -15 10 0 6 7 10 15
10 8 0 15 -4 15 -10z m2450 0 c0 -5 -4 -10 -10 -10 -5 0 -10 5 -10 10 0 6 5
10 10 10 6 0 10 -4 10 -10z m-133 -39 c27 -20 48 -28 62 -24 17 4 21 1 21 -21
0 -24 -3 -26 -46 -26 -36 0 -45 3 -41 14 4 9 -8 25 -29 41 -64 49 -33 64 33
16z m-4607 -1 c0 -5 -7 -10 -16 -10 -8 0 -12 5 -9 10 3 6 10 10 16 10 5 0 9
-4 9 -10z m2340 0 c0 -5 -4 -10 -9 -10 -6 0 -13 5 -16 10 -3 6 1 10 9 10 9 0
16 -4 16 -10z m2460 0 c0 -5 -4 -10 -9 -10 -6 0 -13 5 -16 10 -3 6 1 10 9 10
9 0 16 -4 16 -10z m-4750 -40 c0 -5 -4 -10 -10 -10 -5 0 -10 5 -10 10 0 6 5
10 10 10 6 0 10 -4 10 -10z m2343 3 c-7 -2 -19 -2 -25 0 -7 3 -2 5 12 5 14 0
19 -2 13 -5z m2467 3 c0 -11 -19 -15 -25 -6 -3 5 1 10 9 10 9 0 16 -2 16 -4z
m-2410 -36 c0 -5 -7 -10 -15 -10 -8 0 -15 5 -15 10 0 6 7 10 15 10 8 0 15 -4
15 -10z m-2340 -10 c0 -5 -7 -10 -15 -10 -8 0 -15 5 -15 10 0 6 7 10 15 10 8
0 15 -4 15 -10z m4810 6 c0 -11 -19 -15 -25 -6 -3 5 1 10 9 10 9 0 16 -2 16
-4z m248 -13 c-10 -2 -28 -2 -40 0 -13 2 -5 4 17 4 22 1 32 -1 23 -4z m-4511
-9 c-3 -3 -12 -4 -19 -1 -8 3 -5 6 6 6 11 1 17 -2 13 -5z m4416 -1 c-7 -2 -19
-2 -25 0 -7 3 -2 5 12 5 14 0 19 -2 13 -5z m248 -14 c225 -72 270 -240 87
-319 -42 -18 -75 -24 -158 -26 l-105 -2 100 7 c167 13 255 66 255 155 0 62
-35 106 -120 150 -39 20 -68 29 -175 50 -11 2 -4 4 16 5 20 0 65 -8 100 -20z
m-2821 1 c0 -5 -7 -10 -15 -10 -8 0 -15 5 -15 10 0 6 7 10 15 10 8 0 15 -4 15
-10z m2483 -11 c-145 -56 -151 -184 -13 -266 30 -18 50 -33 44 -33 -15 0 -96
54 -121 81 -54 59 -50 121 12 184 39 39 61 49 115 53 8 1 -8 -8 -37 -19z
m-2423 -29 c0 -5 -9 -10 -20 -10 -11 0 -20 5 -20 10 0 6 9 10 20 10 11 0 20
-4 20 -10z m232 -37 c20 -8 44 -25 52 -38 18 -28 21 -71 5 -80 -6 -4 -14 -16
-18 -27 -6 -17 -18 -21 -77 -23 -39 -2 -99 4 -138 13 -60 14 -70 20 -83 48
-29 60 4 108 85 125 47 9 126 1 174 -18z m2257 0 c-23 -29 -41 -65 -35 -70 7
-7 176 69 176 79 0 4 14 8 32 8 21 0 56 -16 105 -47 40 -27 73 -51 73 -54 0
-7 -240 -112 -256 -112 -16 0 -153 96 -154 108 0 10 25 63 43 93 5 6 13 12 19
12 7 0 6 -7 -3 -17z m-2061 -93 c19 0 22 -4 17 -20 -3 -11 -3 -20 2 -20 4 0
22 -11 38 -24 25 -21 27 -25 13 -31 -10 -4 -33 5 -59 22 -24 16 -52 26 -66 25
-19 -3 -23 1 -23 21 0 30 9 40 35 33 11 -3 30 -6 43 -6z m-473 -60 c3 -5 -3
-10 -14 -10 -12 0 -21 5 -21 10 0 6 6 10 14 10 8 0 18 -4 21 -10z m-985 -14
c0 -11 -19 -15 -25 -6 -3 5 1 10 9 10 9 0 16 -2 16 -4z m920 -16 c0 -5 -7 -10
-15 -10 -8 0 -15 5 -15 10 0 6 7 10 15 10 8 0 15 -4 15 -10z m430 -10 c0 -5
-9 -10 -21 -10 -11 0 -17 5 -14 10 3 6 13 10 21 10 8 0 14 -4 14 -10z m-1300
-20 c0 -5 -4 -10 -9 -10 -6 0 -13 5 -16 10 -3 6 1 10 9 10 9 0 16 -4 16 -10z
m802 -2 c-9 -9 -15 -9 -24 0 -9 9 -7 12 12 12 19 0 21 -3 12 -12z m-71 -21
c-1 -12 -15 -9 -19 4 -3 6 1 10 8 8 6 -3 11 -8 11 -12z m619 3 c0 -5 -7 -10
-16 -10 -8 0 -12 5 -9 10 3 6 10 10 16 10 5 0 9 -4 9 -10z m-1290 -20 c0 -5
-7 -10 -15 -10 -8 0 -15 5 -15 10 0 6 7 10 15 10 8 0 15 -4 15 -10z m615 -10
c3 -5 -3 -10 -14 -10 -12 0 -21 5 -21 10 0 6 6 10 14 10 8 0 18 -4 21 -10z
m2872 4 c-3 -3 -12 -4 -19 -1 -8 3 -5 6 6 6 11 1 17 -2 13 -5z m-2142 -14 c3
-5 -1 -10 -9 -10 -9 0 -16 5 -16 10 0 6 4 10 9 10 6 0 13 -4 16 -10z m-1295
-20 c0 -5 -4 -10 -9 -10 -6 0 -13 5 -16 10 -3 6 1 10 9 10 9 0 16 -4 16 -10z
m500 0 c0 -5 -7 -10 -15 -10 -8 0 -15 5 -15 10 0 6 7 10 15 10 8 0 15 -4 15
-10z m850 -20 c0 -5 -7 -10 -15 -10 -8 0 -15 5 -15 10 0 6 7 10 15 10 8 0 15
-4 15 -10z m-918 -12 c-9 -9 -15 -9 -24 0 -9 9 -7 12 12 12 19 0 21 -3 12 -12z"/>
<path d="M3883 4590 c-34 -14 -28 -21 7 -9 17 6 30 13 30 15 0 6 -12 4 -37 -6z"/>
<path d="M3134 4382 c-37 -24 -37 -98 -1 -111 33 -12 57 -1 74 35 15 30 15 35
-1 58 -16 25 -49 34 -72 18z"/>
<path d="M3200 4266 c-8 -8 -31 -19 -50 -23 -33 -9 -35 -12 -38 -54 -4 -68 4
-72 73 -44 33 14 66 25 74 25 10 0 12 9 6 37 -13 70 -34 89 -65 59z"/>
<path d="M4045 3950 c-13 -5 -14 -9 -5 -9 8 0 24 4 35 9 13 5 14 9 5 9 -8 0
-24 -4 -35 -9z"/>
<path d="M3885 3890 c-22 -11 -35 -19 -29 -20 13 0 74 29 74 36 0 6 0 6 -45
-16z"/>
<path d="M3720 3830 c0 -13 20 -13 40 0 12 8 9 10 -12 10 -16 0 -28 -4 -28
-10z"/>
<path d="M3670 3810 c-18 -12 -2 -12 25 0 13 6 15 9 5 9 -8 0 -22 -4 -30 -9z"/>
<path d="M6115 3790 c-3 -5 1 -10 9 -10 9 0 16 5 16 10 0 6 -4 10 -9 10 -6 0
-13 -4 -16 -10z"/>
<path d="M6070 3769 c0 -5 5 -7 10 -4 6 3 10 8 10 11 0 2 -4 4 -10 4 -5 0 -10
-5 -10 -11z"/>
<path d="M6025 3750 c-3 -6 1 -7 9 -4 18 7 21 14 7 14 -6 0 -13 -4 -16 -10z"/>
<path d="M6180 3520 c0 -5 5 -10 11 -10 5 0 7 5 4 10 -3 6 -8 10 -11 10 -2 0
-4 -4 -4 -10z"/>
<path d="M6108 3498 c-33 -12 -38 -32 -5 -22 34 10 50 21 41 26 -5 3 -21 1
-36 -4z"/>
<path d="M6975 3493 c-70 -21 -113 -56 -121 -98 -18 -98 161 -186 354 -173 86
6 132 22 180 62 80 68 7 170 -153 212 -66 18 -197 16 -260 -3z m200 -42 c-15
-12 -148 -61 -153 -56 -3 3 12 12 34 20 21 9 53 22 69 30 34 16 64 20 50 6z
m52 -28 c-12 -12 -150 -64 -155 -58 -8 7 -4 9 68 38 64 25 100 33 87 20z m48
-32 c-14 -12 -148 -62 -153 -56 -3 2 17 14 44 25 27 11 58 24 69 29 26 12 52
14 40 2z m-275 -11 c0 -5 -9 -10 -20 -10 -11 0 -20 5 -20 10 0 6 9 10 20 10
11 0 20 -4 20 -10z m320 -18 c0 -9 -141 -64 -148 -57 -3 2 17 14 44 25 27 11
58 24 69 29 25 12 35 13 35 3z m-270 -12 c0 -5 -9 -10 -20 -10 -11 0 -20 5
-20 10 0 6 9 10 20 10 11 0 20 -4 20 -10z m50 -29 c0 -15 -16 -22 -34 -15 -25
9 -19 24 9 24 14 0 25 -4 25 -9z m43 -36 c-4 -15 -36 -12 -41 3 -3 9 3 13 19
10 13 -1 23 -7 22 -13z"/>
<path d="M4068 3123 c7 -3 16 -2 19 1 4 3 -2 6 -13 5 -11 0 -14 -3 -6 -6z"/>
<path d="M9243 2950 c-86 -18 -143 -63 -143 -116 0 -38 15 -52 55 -52 50 1 93
-13 115 -37 19 -20 20 -24 5 -38 -14 -15 -12 -17 22 -26 144 -36 309 -8 357
61 82 117 -185 252 -411 208z m238 -89 c63 -39 75 -61 56 -100 -32 -65 -215
-44 -313 36 -17 14 -21 26 -17 49 7 48 50 65 142 57 62 -5 83 -12 132 -42z"/>
<path d="M9263 2878 c-68 -33 32 -122 150 -134 71 -7 97 7 97 51 0 53 -184
115 -247 83z m157 -58 c0 -29 -2 -30 -45 -30 -25 0 -45 5 -45 10 0 6 14 10 30
10 23 0 30 4 30 20 0 11 7 20 15 20 10 0 15 -10 15 -30z"/>
<path d="M7938 2913 c7 -3 16 -2 19 1 4 3 -2 6 -13 5 -11 0 -14 -3 -6 -6z"/>
<path d="M7890 2899 c0 -5 -9 -9 -20 -9 -22 0 -26 -10 -9 -27 8 -8 8 -13 0
-17 -15 -10 -14 -23 3 -29 10 -4 13 -1 9 9 -3 8 1 14 11 14 10 0 16 9 16 24 0
23 3 24 38 19 51 -8 74 -21 70 -41 -2 -13 -16 -18 -51 -20 -32 -2 -47 -7 -44
-15 5 -16 64 -9 96 11 34 21 42 34 31 47 -4 5 -9 14 -9 20 -1 5 -7 10 -14 11
-6 0 -14 2 -17 3 -18 7 -110 7 -110 0z"/>
<path d="M8038 2753 c7 -3 16 -2 19 1 4 3 -2 6 -13 5 -11 0 -14 -3 -6 -6z"/>
<path d="M4475 2905 l-30 -14 30 6 c17 3 37 9 45 14 27 15 -11 10 -45 -6z"/>
<path d="M6318 2403 c-38 -14 -68 -30 -68 -37 0 -6 19 -23 43 -37 86 -54 82
-53 153 -23 36 15 63 32 61 38 -4 11 -106 86 -116 85 -3 0 -36 -12 -73 -26z"/>
<path d="M6546 2324 c-115 -46 -212 -86 -215 -90 -7 -7 30 -38 85 -70 l43 -25
178 77 c98 42 200 86 227 98 l49 23 -55 36 c-30 20 -66 37 -79 36 -13 0 -118
-39 -233 -85z"/>
<path d="M6851 2274 c-31 -13 -33 -16 -20 -30 13 -12 19 -13 40 -2 14 7 24 19
22 25 -2 6 4 13 14 16 16 4 15 5 -2 5 -11 1 -35 -5 -54 -14z"/>
<path d="M6350 2270 c0 -5 5 -10 10 -10 6 0 10 5 10 10 0 6 -4 10 -10 10 -5 0
-10 -4 -10 -10z"/>
<path d="M6865 2231 c-3 -5 -1 -12 5 -16 5 -3 10 -3 10 1 0 4 8 0 18 -8 35
-30 46 -30 17 0 -32 34 -40 37 -50 23z"/>
<path d="M6658 2198 c-43 -17 -78 -35 -78 -39 0 -12 107 -79 125 -79 19 0 155
61 155 69 0 6 -113 81 -121 80 -2 0 -39 -14 -81 -31z"/>
<path d="M6438 2111 c-37 -14 -68 -31 -68 -37 0 -14 100 -84 120 -84 20 0 170
62 170 70 0 14 -111 80 -132 79 -13 -1 -53 -13 -90 -28z"/>
<path d="M6350 1606 c0 -2 7 -7 16 -10 8 -3 12 -2 9 4 -6 10 -25 14 -25 6z"/>
<path d="M4335 2773 c-18 -14 -18 -15 -2 -9 10 3 23 6 28 6 5 0 9 5 9 10 0 14
-12 12 -35 -7z"/>
<path d="M4265 2750 c-8 -13 5 -13 25 0 13 8 13 10 -2 10 -9 0 -20 -4 -23 -10z"/>
<path d="M3260 2581 c-72 -29 -65 -70 21 -125 l26 -17 22 47 c20 43 26 69 22
102 -2 17 -38 14 -91 -7z"/>
<path d="M3293 2377 c-27 -45 -35 -84 -23 -107 11 -20 22 -18 138 25 10 4 9
11 -3 34 -13 26 -72 81 -87 81 -4 0 -15 -15 -25 -33z"/>
<path d="M9850 2346 c-123 -27 -175 -81 -145 -153 18 -42 31 -54 105 -92 190
-99 487 -43 466 88 -11 71 -107 132 -242 156 -94 17 -112 17 -184 1z m139 -47
c70 -16 97 -41 119 -112 11 -34 18 -65 16 -68 -5 -9 -222 36 -266 54 -71 30
-75 102 -7 124 44 14 84 15 138 2z"/>
<path d="M9837 2263 c-9 -9 -9 -41 1 -46 4 -3 7 8 7 24 0 16 0 29 -1 29 0 0
-4 -3 -7 -7z"/>
<path d="M9892 2259 c-50 -20 -2 -69 69 -69 64 0 80 42 24 66 -39 16 -60 17
-93 3z"/>
<path d="M10050 2217 c0 -21 -38 -47 -70 -48 -14 0 4 -7 39 -15 36 -7 66 -12
67 -11 4 4 -21 75 -29 83 -4 4 -7 0 -7 -9z"/>
<path d="M8355 2179 c-96 -22 -155 -72 -155 -132 0 -36 58 -99 116 -126 47
-23 137 -45 155 -39 6 2 -33 32 -86 66 l-96 62 3 47 c3 52 -1 49 118 102 l65
29 -40 0 c-22 0 -58 -4 -80 -9z"/>
<path d="M8416 2141 l-88 -38 36 -22 c20 -13 36 -26 36 -31 0 -5 -16 -14 -35
-21 -19 -7 -35 -16 -35 -19 0 -6 21 -21 152 -104 l58 -36 66 10 c123 20 184
63 184 131 0 51 -35 90 -114 129 -97 48 -151 48 -260 1z m160 -59 c11 -10 33
-22 49 -26 34 -9 95 -44 95 -55 0 -4 -32 -21 -71 -36 l-71 -29 -37 21 c-20 11
-40 30 -46 41 -5 12 -19 23 -32 27 -33 8 -47 39 -27 59 23 23 114 22 140 -2z"/>
<path d="M8460 2075 c-12 -15 -12 -19 5 -31 26 -19 94 -18 102 2 8 22 -9 35
-54 41 -29 4 -42 1 -53 -12z"/>
<path d="M8585 2031 c-3 -5 -19 -12 -35 -16 -37 -8 -38 -18 -3 -40 26 -17 29
-17 80 0 30 10 56 22 59 26 6 10 -49 39 -75 39 -11 0 -22 -4 -26 -9z"/>
<path d="M8320 2055 c0 -28 3 -30 32 -14 21 11 21 12 3 25 -27 20 -35 17 -35
-11z"/>
<path d="M9363 1983 c9 -2 25 -2 35 0 9 3 1 5 -18 5 -19 0 -27 -2 -17 -5z"/>
<path d="M9296 1964 c-3 -8 -1 -14 5 -14 6 0 8 -7 5 -16 -5 -14 -4 -15 9 -4 8
7 15 18 15 25 0 19 -27 26 -34 9z"/>
<path d="M9434 1964 c9 -8 14 -20 11 -25 -4 -5 -1 -9 4 -9 6 0 11 6 11 13 0
15 -20 37 -33 37 -5 0 -1 -7 7 -16z"/>
<path d="M9967 1630 c-154 -39 -187 -152 -68 -234 73 -51 145 -70 266 -71 125
0 183 16 229 64 98 103 -63 239 -294 247 -52 2 -112 -1 -133 -6z m219 -75 c12
-9 31 -12 51 -9 23 4 42 0 68 -16 20 -12 33 -26 28 -30 -4 -5 -72 -36 -150
-70 l-143 -62 -34 21 c-54 34 -60 46 -30 60 26 11 26 12 8 26 -18 12 -16 14
21 29 22 9 63 27 90 40 60 29 66 30 91 11z"/>
<path d="M10078 1513 c-32 -15 -58 -29 -58 -33 0 -4 10 -12 23 -18 12 -7 31
-18 42 -26 18 -14 27 -12 93 18 l72 33 -40 27 c-48 31 -59 31 -132 -1z"/>
<path d="M10254 1515 c26 -19 42 -19 26 0 -7 8 -20 15 -29 15 -13 -1 -13 -3 3
-15z"/>
<path d="M10005 1430 c-9 -14 40 -34 62 -26 16 7 16 9 -7 21 -30 17 -47 18
-55 5z"/>
<path d="M8430 1266 c-246 -66 -160 -275 131 -316 79 -11 192 1 242 26 156 79
110 214 -96 279 -88 28 -199 32 -277 11z m278 -66 c34 -22 62 -47 62 -55 0
-10 -22 -26 -55 -41 -43 -20 -55 -30 -55 -48 0 -13 -10 -31 -21 -42 -21 -19
-22 -19 -36 4 -12 17 -25 22 -62 22 -84 0 -194 86 -149 117 7 4 48 24 93 44
109 50 145 50 223 -1z"/>
<path d="M8498 1189 c-56 -24 -98 -47 -98 -55 0 -8 25 -30 55 -50 49 -33 59
-36 98 -30 33 5 47 3 57 -9 16 -19 30 -10 30 19 0 17 12 28 50 46 28 13 50 29
50 36 0 18 -82 73 -117 79 -19 3 -60 -8 -125 -36z"/>
<path d="M2625 1051 c-34 -14 -57 -47 -50 -70 17 -54 165 -77 222 -35 32 24
40 48 22 70 -8 10 -15 11 -24 4 -8 -7 -15 -7 -19 -1 -3 5 0 11 6 14 8 3 1 10
-15 16 -32 13 -112 14 -142 2z m45 -21 c0 -5 -7 -10 -15 -10 -8 0 -15 5 -15
10 0 6 7 10 15 10 8 0 15 -4 15 -10z m80 -20 c12 -7 12 -13 4 -27 -8 -13 -25
-18 -63 -20 -56 -2 -59 1 -35 35 16 23 66 30 94 12z"/>
<path d="M1145 569 c-71 -12 -139 -44 -180 -85 -30 -29 -35 -42 -35 -79 0
-151 292 -234 502 -143 62 27 118 88 118 129 0 44 -28 86 -62 93 -16 3 -28 12
-28 20 0 21 -49 45 -128 62 -74 15 -112 16 -187 3z m232 -76 c94 -72 107 -84
97 -92 -5 -4 -61 -29 -124 -54 -63 -25 -131 -53 -151 -61 l-37 -15 -61 46
c-34 26 -61 52 -60 58 2 36 23 50 144 100 72 30 133 54 136 54 4 1 29 -16 56
-36z"/>
<path d="M1195 462 c-107 -42 -120 -50 -123 -73 -3 -22 6 -33 46 -63 l49 -36
142 58 c77 31 141 59 141 62 -1 6 -125 100 -131 100 -2 -1 -58 -22 -124 -48z
m35 -17 c0 -6 -66 -34 -99 -42 -37 -8 -17 9 32 29 43 17 67 22 67 13z m87 -1
c-3 -3 -12 -4 -19 -1 -8 3 -5 6 6 6 11 1 17 -2 13 -5z m-37 -14 c0 -5 -4 -10
-10 -10 -5 0 -10 5 -10 10 0 6 5 10 10 10 6 0 10 -4 10 -10z m67 -6 c-3 -3
-12 -4 -19 -1 -8 3 -5 6 6 6 11 1 17 -2 13 -5z m-42 -14 c3 -5 -1 -10 -10 -10
-9 0 -13 5 -10 10 3 6 8 10 10 10 2 0 7 -4 10 -10z m-105 -10 c0 -5 -4 -10
-10 -10 -5 0 -10 5 -10 10 0 6 5 10 10 10 6 0 10 -4 10 -10z m70 -4 c0 -3 -4
-8 -10 -11 -5 -3 -10 -1 -10 4 0 6 5 11 10 11 6 0 10 -2 10 -4z m60 -6 c0 -5
-5 -10 -11 -10 -5 0 -7 5 -4 10 3 6 8 10 11 10 2 0 4 -4 4 -10z m-105 -10 c3
-5 -1 -10 -10 -10 -9 0 -13 5 -10 10 3 6 8 10 10 10 2 0 7 -4 10 -10z m65 -10
c0 -5 -2 -10 -4 -10 -3 0 -8 5 -11 10 -3 6 -1 10 4 10 6 0 11 -4 11 -10z
m-100 -10 c0 -5 -4 -10 -10 -10 -5 0 -10 5 -10 10 0 6 5 10 10 10 6 0 10 -4
10 -10z m67 -6 c-3 -3 -12 -4 -19 -1 -8 3 -5 6 6 6 11 1 17 -2 13 -5z m-42
-14 c3 -5 1 -10 -4 -10 -6 0 -11 5 -11 10 0 6 2 10 4 10 3 0 8 -4 11 -10z"/>
<path d="M5387 330 c-16 -5 -35 -14 -43 -21 -19 -16 -18 -53 4 -71 40 -35 152
-52 152 -24 0 21 21 31 31 15 8 -11 13 -9 29 9 22 27 15 52 -23 76 -28 19
-114 28 -150 16z m76 -30 c34 0 55 -26 36 -44 -16 -16 -129 -29 -129 -15 0 5
5 9 10 9 6 0 10 13 10 28 0 36 8 44 31 32 10 -6 29 -10 42 -10z"/>
<path d="M7990 309 c-12 -22 -19 -43 -17 -45 3 -3 40 -4 83 -2 l79 3 -62 43
-62 42 -21 -41z"/>
<path d="M7888 305 c-80 -34 -118 -62 -102 -73 6 -4 31 -22 56 -39 26 -18 49
-33 52 -33 5 0 46 78 46 86 0 2 -26 5 -57 7 l-58 3 61 2 c59 2 61 3 77 37 27
56 29 55 -75 10z"/>
<path d="M7940 210 c-11 -22 -16 -40 -11 -40 10 0 172 69 180 76 2 2 -30 4
-72 4 l-77 0 -20 -40z"/>
<path d="M4108 3835 c-3 -3 -14 -8 -24 -10 -52 -12 -94 -31 -94 -42 0 -22 18
-23 79 0 43 15 61 27 61 40 0 16 -11 23 -22 12z m-3 -25 c-3 -5 -16 -10 -28
-9 -20 1 -20 2 3 9 14 4 26 8 28 9 2 1 0 -3 -3 -9z m-60 -20 c-3 -5 -11 -10
-16 -10 -6 0 -7 5 -4 10 3 6 11 10 16 10 6 0 7 -4 4 -10z"/>
</g>
</svg>
